<svg width="24" height="24" viewBox="0 0 24 24" fill="none" xmlns="http://www.w3.org/2000/svg">
<path d="M18.4499 16.0447C19.7518 15.1292 20.31 13.4755 19.8293 11.9583C19.3486 10.4411 17.8766 9.60992 16.2851 9.61115H15.3657C14.7647 7.26886 12.7817 5.53959 10.3794 5.2629C7.97703 4.98621 5.65284 6.21935 4.53505 8.36371C3.41726 10.5081 3.73734 13.1196 5.33989 14.9306" stroke="#006CB8" stroke-width="2" stroke-linecap="round" stroke-linejoin="round"/>
<path fill-rule="evenodd" clip-rule="evenodd" d="M11.9065 10.5622C12.4588 10.562 12.9067 11.0095 12.907 11.5617L12.9103 18.6918C12.9106 19.2441 12.4631 19.692 11.9108 19.6922C11.3585 19.6925 10.9106 19.245 10.9103 18.6927L10.907 11.5627C10.9067 11.0104 11.3542 10.5625 11.9065 10.5622Z" fill="#006CB8"/>
<path fill-rule="evenodd" clip-rule="evenodd" d="M8.679 15.4644C9.06953 15.0738 9.70269 15.0738 10.0932 15.4644L11.907 17.2781L13.7207 15.4644C14.1113 15.0738 14.7444 15.0738 15.1349 15.4644C15.5255 15.8549 15.5255 16.488 15.1349 16.8786L12.6141 19.3994C12.2236 19.79 11.5904 19.79 11.1999 19.3994L8.679 16.8786C8.28848 16.488 8.28848 15.8549 8.679 15.4644Z" fill="#006CB8"/>
</svg>
