<svg width="24" height="24" viewBox="0 0 24 24" fill="none" xmlns="http://www.w3.org/2000/svg">
<path fill-rule="evenodd" clip-rule="evenodd" d="M18.2874 6.33675L5.68226 10.8898L9.88163 13.3178L13.5845 9.61775C13.7723 9.43024 14.027 9.32495 14.2926 9.32505C14.5581 9.32514 14.8128 9.43061 15.0005 9.61825C15.1882 9.80589 15.2936 10.0603 15.2935 10.3256C15.2934 10.5909 15.1878 10.8452 15 11.0328L11.2961 14.7328L13.7286 18.9268L18.2874 6.33675ZM18.6107 4.09275C19.807 3.65975 20.9662 4.81775 20.5327 6.01275L15.2452 20.6178C14.8108 21.8158 13.1731 21.9617 12.5334 20.8587L9.31304 15.3008L3.74924 12.0838C2.64509 11.4448 2.79125 9.80875 3.99049 9.37475L18.6107 4.09275Z" fill="black"/>
</svg>
