<svg width="24" height="24" viewBox="0 0 24 24" fill="none" xmlns="http://www.w3.org/2000/svg">
<path fill-rule="evenodd" clip-rule="evenodd" d="M3.25378 18.4767C2.93211 18.7983 2.49583 18.979 2.04092 18.979C1.58601 18.979 1.14974 18.7983 0.828066 18.4767C0.506396 18.155 0.325684 17.7187 0.325684 17.2638C0.325684 16.8089 0.506396 16.3726 0.828066 16.0509L6.54178 10.3389L6.55378 10.3269C7.02061 9.86971 7.64804 9.61363 8.3015 9.61363C8.95495 9.61363 9.58238 9.86971 10.0492 10.3269L10.0612 10.3389L12.9772 13.2549L17.0006 9.00009L15.2178 7.21723C15.0382 7.03743 14.9159 6.80844 14.8664 6.55918C14.8169 6.30993 14.8424 6.05159 14.9396 5.81679C15.0368 5.582 15.2014 5.38128 15.4126 5.23999C15.6239 5.0987 15.8722 5.02317 16.1264 5.02295H22.3869C22.7279 5.02295 23.0549 5.15841 23.2961 5.39953C23.5372 5.64064 23.6726 5.96767 23.6726 6.30866V12.5692C23.6724 12.8234 23.5969 13.0717 23.4556 13.2829C23.3143 13.4942 23.1136 13.6588 22.8788 13.756C22.644 13.8532 22.3857 13.8787 22.1364 13.8292C21.8871 13.7797 21.6582 13.6574 21.4784 13.4778L19.4264 11.4241L14.7909 16.3287C14.5619 16.5651 14.2884 16.7539 13.9861 16.8842C13.6839 17.0146 13.3588 17.0839 13.0297 17.0882C12.7006 17.0925 12.3738 17.0317 12.0683 16.9093C11.7627 16.7869 11.4844 16.6053 11.2492 16.3749L11.2372 16.3629L8.30064 13.4281L3.25378 18.4767Z" fill="black"/>
</svg>
