<svg width="15" height="15" viewBox="0 0 15 15" fill="none" xmlns="http://www.w3.org/2000/svg">
<path d="M12.3125 8.0625L8.75 11.625H7.3125V10.1875L10.875 6.625L12.3125 8.0625ZM14.4375 7.5625C14.4375 7.75 14.25 7.9375 14.0625 8.125L12.5 9.6875L11.9375 9.125L13.5625 7.5L13.1875 7.125L12.75 7.5625L11.3125 6.125L12.6875 4.8125C12.8125 4.6875 13.0625 4.6875 13.25 4.8125L14.125 5.6875C14.25 5.8125 14.25 6.0625 14.125 6.25C14 6.375 13.875 6.5 13.875 6.625C13.875 6.75 14 6.875 14.125 7C14.3125 7.1875 14.5 7.375 14.4375 7.5625ZM1.875 12.5V2.5H6.25V5.625H9.375V6.5625L10.625 5.3125V5L6.875 1.25H1.875C1.1875 1.25 0.625 1.8125 0.625 2.5V12.5C0.625 13.1875 1.1875 13.75 1.875 13.75H9.375C10.0625 13.75 10.625 13.1875 10.625 12.5H1.875ZM6.875 10.6875C6.75 10.6875 6.625 10.75 6.5625 10.75L6.25 9.375H5.3125L4 10.4375L4.375 8.75H3.4375L2.8125 11.875H3.75L5.5625 10.25L5.9375 11.6875H6.5625L6.875 11.625V10.6875Z" fill="#006CB8"/>
</svg>
