<svg width="24" height="24" viewBox="0 0 24 24" fill="none" xmlns="http://www.w3.org/2000/svg">
<path d="M6.75 3C5.75544 3 4.80161 3.39509 4.09835 4.09835C3.39509 4.80161 3 5.75544 3 6.75V15.75C3 16.7446 3.39509 17.6984 4.09835 18.4017C4.80161 19.1049 5.75544 19.5 6.75 19.5H7.5V18H6.75C6.15326 18 5.58097 17.7629 5.15901 17.341C4.73705 16.919 4.5 16.3467 4.5 15.75V6.75C4.5 6.15326 4.73705 5.58097 5.15901 5.15901C5.58097 4.73705 6.15326 4.5 6.75 4.5H15.75C16.3467 4.5 16.919 4.73705 17.341 5.15901C17.7629 5.58097 18 6.15326 18 6.75V10.5H19.5V6.75C19.5 5.75544 19.1049 4.80161 18.4017 4.09835C17.6984 3.39509 16.7446 3 15.75 3H6.75ZM11.25 12C10.6533 12 10.081 12.2371 9.65901 12.659C9.23705 13.081 9 13.6533 9 14.25V20.25C9 20.8467 9.23705 21.419 9.65901 21.841C10.081 22.2629 10.6533 22.5 11.25 22.5H20.25C20.8467 22.5 21.419 22.2629 21.841 21.841C22.2629 21.419 22.5 20.8467 22.5 20.25V14.25C22.5 13.6533 22.2629 13.081 21.841 12.659C21.419 12.2371 20.8467 12 20.25 12H11.25ZM10.5 14.25C10.5 14.0511 10.579 13.8603 10.7197 13.7197C10.8603 13.579 11.0511 13.5 11.25 13.5H20.25C20.4489 13.5 20.6397 13.579 20.7803 13.7197C20.921 13.8603 21 14.0511 21 14.25V14.976L15.75 17.892L10.5 14.976V14.25ZM10.5 16.6905L15.3855 19.4055C15.497 19.4675 15.6224 19.5 15.75 19.5C15.8776 19.5 16.003 19.4675 16.1145 19.4055L21 16.6905V20.25C21 20.4489 20.921 20.6397 20.7803 20.7803C20.6397 20.921 20.4489 21 20.25 21H11.25C11.0511 21 10.8603 20.921 10.7197 20.7803C10.579 20.6397 10.5 20.4489 10.5 20.25V16.6905ZM7.5 7.5C7.30109 7.5 7.11032 7.57902 6.96967 7.71967C6.82902 7.86032 6.75 8.05109 6.75 8.25C6.75 8.44891 6.82902 8.63968 6.96967 8.78033C7.11032 8.92098 7.30109 9 7.5 9H15C15.1989 9 15.3897 8.92098 15.5303 8.78033C15.671 8.63968 15.75 8.44891 15.75 8.25C15.75 8.05109 15.671 7.86032 15.5303 7.71967C15.3897 7.57902 15.1989 7.5 15 7.5H7.5Z" fill="black"/>
</svg>
