<svg width="44" height="44" viewBox="0 0 44 44" fill="none" xmlns="http://www.w3.org/2000/svg">
<path d="M3 36L11.8 22.2626C12.9407 20.1616 14.0815 20 17.5037 20H25C24.5111 20.4849 23.6963 21.1313 23.2074 22.101L15.5482 34.2222C14.7333 35.5152 13.2667 36 11.3111 36H3Z" fill="#006CB8"/>
<path d="M32.9346 20C29.4018 20 28.2243 20.1695 26.8786 22.3728L22 30H31.0841C32.5982 30 34.1122 29.322 34.7851 28.1356L40 20H32.9346Z" fill="#ACC42A"/>
<path d="M29.2336 9C32.7664 9 33.7757 9.15517 35.1216 11.0172L40 18H31.0841C29.5701 18 28.056 17.3793 27.3833 16.4483L22 9H29.2336Z" fill="#ED1B2F"/>
</svg>
