<svg width="24" height="24" viewBox="0 0 24 24" fill="none" xmlns="http://www.w3.org/2000/svg">
<path fill-rule="evenodd" clip-rule="evenodd" d="M18 3.5H6C4.61929 3.5 3.5 4.61929 3.5 6V18C3.5 19.3807 4.61929 20.5 6 20.5H18C19.3807 20.5 20.5 19.3807 20.5 18V6C20.5 4.61929 19.3807 3.5 18 3.5ZM6 2C3.79086 2 2 3.79086 2 6V18C2 20.2091 3.79086 22 6 22H18C20.2091 22 22 20.2091 22 18V6C22 3.79086 20.2091 2 18 2H6Z" fill="black"/>
<path fill-rule="evenodd" clip-rule="evenodd" d="M5 13.7529H5.65948V12.8963H6.51712V13.7529H7.17659V11.1098C7.17659 10.4994 6.68687 10 6.0883 10C5.48973 10 5 10.4994 5 11.1098V13.7529ZM10.0089 10H10.6576V11.5457H11.5179V10H12.1666V13.7529H11.5179V12.2072H10.6576V13.7529H10.0089V10ZM8.16075 11.5478H8.59859C8.82648 11.5478 9.01294 11.3576 9.01294 11.1252V10.0214H9.6626V11.1543C9.6626 11.437 9.55382 11.6951 9.37688 11.8871C9.55381 12.0792 9.6626 12.3372 9.6626 12.6199V13.7529H9.01294V12.649C9.01294 12.4166 8.82649 12.2265 8.59859 12.2265H8.16075V13.7528H7.49345V12.2265V11.5477V10.0214H8.16075V11.5477V11.5478ZM5.65949 12.2141V11.1084C5.65949 10.8679 5.85247 10.6711 6.08831 10.6711C6.32416 10.6711 6.51713 10.8679 6.51713 11.1084V12.2141H5.65949Z" fill="#011222"/>
<path fill-rule="evenodd" clip-rule="evenodd" d="M14.3373 13.7529H14.9968V12.8963H15.8544V13.7529H16.5139V11.1098C16.5139 10.4994 16.0241 10 15.4256 10C14.827 10 14.3373 10.4994 14.3373 11.1098V13.7529H14.3373ZM12.4999 10H13.1594V12.6585C13.1594 12.903 13.3556 13.103 13.5954 13.103H14.0079V13.7515H13.5257C12.9615 13.7515 12.4999 13.2808 12.4999 12.7055V10V10ZM17.498 11.5478H17.9359C18.1638 11.5478 18.3502 11.3576 18.3502 11.1252V10.0214H18.9999V11.1543C18.9999 11.437 18.8911 11.6951 18.7142 11.8871C18.8911 12.0792 18.9999 12.3372 18.9999 12.6199V13.7529H18.3502V12.649C18.3502 12.4166 18.1638 12.2265 17.9359 12.2265H17.498V13.7528H16.8307V12.2265V11.5477V10.0214H17.498V11.5477V11.5478ZM14.9968 12.2141V11.1084C14.9968 10.8679 15.1897 10.6711 15.4256 10.6711C15.6614 10.6711 15.8544 10.8679 15.8544 11.1084V12.2141H14.9968H14.9968Z" fill="#011222"/>
</svg>
