<svg width="24" height="24" viewBox="0 0 24 24" fill="none" xmlns="http://www.w3.org/2000/svg">
<path d="M2 6C2 3.79086 3.79086 2 6 2H18C20.2091 2 22 3.79086 22 6V18C22 20.2091 20.2091 22 18 22H6C3.79086 22 2 20.2091 2 18V6Z" fill="url(#paint0_linear_73_215)"/>
<mask id="mask0_73_215" style="mask-type:alpha" maskUnits="userSpaceOnUse" x="2" y="2" width="20" height="20">
<path d="M2 5.99998C2 3.79085 3.79085 2 5.99998 2H17.9999C20.209 2 21.9999 3.79085 21.9999 5.99998V17.9999C21.9999 20.209 20.209 21.9999 17.9999 21.9999H5.99998C3.79085 21.9999 2 20.209 2 17.9999V5.99998Z" fill="url(#paint1_linear_73_215)"/>
</mask>
<g mask="url(#mask0_73_215)">
<path d="M12.1998 13.1158C17.5758 6.5878 24.3598 6.5558 27.0798 7.3558L28.0397 24.6357L4.99988 26.5557C5.15988 24.7957 6.82387 19.6437 12.1998 13.1158Z" fill="url(#paint2_linear_73_215)"/>
</g>
<path fill-rule="evenodd" clip-rule="evenodd" d="M4 14.0934H4.71932V13.1591H5.65478V14.0934H6.3741V11.2105C6.3741 10.5447 5.83994 10 5.18705 10C4.53416 10 4 10.5447 4 11.2105V14.0934ZM9.46347 10H10.171V11.686H11.1094V10H11.8169V14.0934H11.1094V12.4075H10.171V14.0934H9.46347V10ZM7.44756 11.6882H7.92513C8.1737 11.6882 8.37709 11.4808 8.37709 11.2273V10.0233H9.0857V11.2591C9.0857 11.5674 8.96705 11.8489 8.77405 12.0584C8.96703 12.2679 9.0857 12.5493 9.0857 12.8577V14.0934H8.37709V12.8894C8.37709 12.6359 8.17372 12.4285 7.92513 12.4285H7.44756V14.0934H6.71971V12.4285V11.6882V10.0233H7.44756V11.6882V11.6882ZM4.71934 12.415V11.209C4.71934 10.9467 4.92982 10.732 5.18707 10.732C5.44431 10.732 5.6548 10.9467 5.6548 11.209V12.415H4.71934Z" fill="white"/>
<path fill-rule="evenodd" clip-rule="evenodd" d="M14.1847 14.0933H14.9041V13.159H15.8395V14.0933H16.5588V11.2104C16.5588 10.5446 16.0247 9.99988 15.3718 9.99988C14.7189 9.99988 14.1847 10.5446 14.1847 11.2104V14.0933H14.1847ZM12.1807 9.99988H12.9V12.8996C12.9 13.1663 13.114 13.3845 13.3755 13.3845H13.8255V14.0918H13.2995C12.6841 14.0918 12.1807 13.5784 12.1807 12.9509V9.9999V9.99988ZM17.6323 11.6881H18.1099C18.3584 11.6881 18.5618 11.4807 18.5618 11.2272V10.0232H19.2704V11.259C19.2704 11.5673 19.1518 11.8488 18.9588 12.0583C19.1518 12.2678 19.2704 12.5492 19.2704 12.8575V14.0933H18.5618V12.8893C18.5618 12.6358 18.3584 12.4284 18.1099 12.4284H17.6323V14.0933H16.9045V12.4284V11.688V10.0232H17.6323V11.688V11.6881ZM14.9041 12.4149V11.2089C14.9041 10.9466 15.1145 10.7319 15.3718 10.7319C15.6291 10.7319 15.8395 10.9465 15.8395 11.2089V12.4149H14.9041H14.9041Z" fill="white"/>
<defs>
<linearGradient id="paint0_linear_73_215" x1="13" y1="9" x2="26" y2="24" gradientUnits="userSpaceOnUse">
<stop stop-color="#00A7B6" stop-opacity="0.57"/>
<stop offset="1" stop-color="#193368"/>
</linearGradient>
<linearGradient id="paint1_linear_73_215" x1="17.9999" y1="16.9999" x2="35.9998" y2="32.9998" gradientUnits="userSpaceOnUse">
<stop stop-color="#00A7B6" stop-opacity="0.57"/>
<stop offset="1" stop-color="#193368"/>
</linearGradient>
<linearGradient id="paint2_linear_73_215" x1="21.3198" y1="10.2358" x2="6.43987" y2="23.6757" gradientUnits="userSpaceOnUse">
<stop offset="0.145833" stop-color="#193368"/>
<stop offset="1" stop-color="#00A7B6" stop-opacity="0.22"/>
</linearGradient>
</defs>
</svg>
