<svg width="24" height="24" viewBox="0 0 24 24" fill="none" xmlns="http://www.w3.org/2000/svg">
<path d="M21 17.25V9H3V17.25C3 18.2446 3.39509 19.1984 4.09835 19.9017C4.80161 20.6049 5.75544 21 6.75 21H17.25C18.2446 21 19.1984 20.6049 19.9017 19.9017C20.6049 19.1984 21 18.2446 21 17.25ZM8.9955 12.372C8.9955 12.6698 8.87721 12.9553 8.66665 13.1659C8.4561 13.3765 8.17052 13.4948 7.87275 13.4948C7.57498 13.4948 7.2894 13.3765 7.07885 13.1659C6.86829 12.9553 6.75 12.6698 6.75 12.372C6.75 12.0742 6.86829 11.7887 7.07885 11.5781C7.2894 11.3675 7.57498 11.2492 7.87275 11.2492C8.17052 11.2492 8.4561 11.3675 8.66665 11.5781C8.87721 11.7887 8.9955 12.0742 8.9955 12.372ZM8.9955 16.122C8.9955 16.4198 8.87721 16.7053 8.66665 16.9159C8.4561 17.1265 8.17052 17.2448 7.87275 17.2448C7.57498 17.2448 7.2894 17.1265 7.07885 16.9159C6.86829 16.7053 6.75 16.4198 6.75 16.122C6.75 15.8242 6.86829 15.5387 7.07885 15.3281C7.2894 15.1175 7.57498 14.9993 7.87275 14.9993C8.17052 14.9993 8.4561 15.1175 8.66665 15.3281C8.87721 15.5387 8.9955 15.8242 8.9955 16.122ZM13.1235 12.372C13.1235 12.6698 13.0052 12.9553 12.7947 13.1659C12.5841 13.3765 12.2985 13.4948 12.0007 13.4948C11.703 13.4948 11.4174 13.3765 11.2068 13.1659C10.9963 12.9553 10.878 12.6698 10.878 12.372C10.878 12.0742 10.9963 11.7887 11.2068 11.5781C11.4174 11.3675 11.703 11.2492 12.0007 11.2492C12.2985 11.2492 12.5841 11.3675 12.7947 11.5781C13.0052 11.7887 13.1235 12.0742 13.1235 12.372ZM13.1235 16.122C13.1235 16.4198 13.0052 16.7053 12.7947 16.9159C12.5841 17.1265 12.2985 17.2448 12.0007 17.2448C11.703 17.2448 11.4174 17.1265 11.2068 16.9159C10.9963 16.7053 10.878 16.4198 10.878 16.122C10.878 15.8242 10.9963 15.5387 11.2068 15.3281C11.4174 15.1175 11.703 14.9993 12.0007 14.9993C12.2985 14.9993 12.5841 15.1175 12.7947 15.3281C13.0052 15.5387 13.1235 15.8242 13.1235 16.122ZM17.2455 12.372C17.2455 12.6698 17.1272 12.9553 16.9167 13.1659C16.7061 13.3765 16.4205 13.4948 16.1227 13.4948C15.825 13.4948 15.5394 13.3765 15.3288 13.1659C15.1183 12.9553 15 12.6698 15 12.372C15 12.0742 15.1183 11.7887 15.3288 11.5781C15.5394 11.3675 15.825 11.2492 16.1227 11.2492C16.4205 11.2492 16.7061 11.3675 16.9167 11.5781C17.1272 11.7887 17.2455 12.0742 17.2455 12.372ZM21 6.75C21 5.75544 20.6049 4.80161 19.9017 4.09835C19.1984 3.39509 18.2446 3 17.25 3H6.75C5.75544 3 4.80161 3.39509 4.09835 4.09835C3.39509 4.80161 3 5.75544 3 6.75V7.5H21V6.75Z" fill="#AA0B0D"/>
<mask id="mask0_73_113" style="mask-type:alpha" maskUnits="userSpaceOnUse" x="3" y="3" width="18" height="18">
<path d="M21 17.25V9H3V17.25C3 18.2446 3.39509 19.1984 4.09835 19.9017C4.80161 20.6049 5.75544 21 6.75 21H17.25C18.2446 21 19.1984 20.6049 19.9017 19.9017C20.6049 19.1984 21 18.2446 21 17.25ZM8.9955 12.372C8.9955 12.6698 8.87721 12.9553 8.66665 13.1659C8.4561 13.3765 8.17052 13.4948 7.87275 13.4948C7.57498 13.4948 7.2894 13.3765 7.07885 13.1659C6.86829 12.9553 6.75 12.6698 6.75 12.372C6.75 12.0742 6.86829 11.7887 7.07885 11.5781C7.2894 11.3675 7.57498 11.2492 7.87275 11.2492C8.17052 11.2492 8.4561 11.3675 8.66665 11.5781C8.87721 11.7887 8.9955 12.0742 8.9955 12.372ZM8.9955 16.122C8.9955 16.4198 8.87721 16.7053 8.66665 16.9159C8.4561 17.1265 8.17052 17.2448 7.87275 17.2448C7.57498 17.2448 7.2894 17.1265 7.07885 16.9159C6.86829 16.7053 6.75 16.4198 6.75 16.122C6.75 15.8242 6.86829 15.5387 7.07885 15.3281C7.2894 15.1175 7.57498 14.9993 7.87275 14.9993C8.17052 14.9993 8.4561 15.1175 8.66665 15.3281C8.87721 15.5387 8.9955 15.8242 8.9955 16.122ZM13.1235 12.372C13.1235 12.6698 13.0052 12.9553 12.7947 13.1659C12.5841 13.3765 12.2985 13.4948 12.0007 13.4948C11.703 13.4948 11.4174 13.3765 11.2068 13.1659C10.9963 12.9553 10.878 12.6698 10.878 12.372C10.878 12.0742 10.9963 11.7887 11.2068 11.5781C11.4174 11.3675 11.703 11.2492 12.0007 11.2492C12.2985 11.2492 12.5841 11.3675 12.7947 11.5781C13.0052 11.7887 13.1235 12.0742 13.1235 12.372ZM13.1235 16.122C13.1235 16.4198 13.0052 16.7053 12.7947 16.9159C12.5841 17.1265 12.2985 17.2448 12.0007 17.2448C11.703 17.2448 11.4174 17.1265 11.2068 16.9159C10.9963 16.7053 10.878 16.4198 10.878 16.122C10.878 15.8242 10.9963 15.5387 11.2068 15.3281C11.4174 15.1175 11.703 14.9993 12.0007 14.9993C12.2985 14.9993 12.5841 15.1175 12.7947 15.3281C13.0052 15.5387 13.1235 15.8242 13.1235 16.122ZM17.2455 12.372C17.2455 12.6698 17.1272 12.9553 16.9167 13.1659C16.7061 13.3765 16.4205 13.4948 16.1227 13.4948C15.825 13.4948 15.5394 13.3765 15.3288 13.1659C15.1183 12.9553 15 12.6698 15 12.372C15 12.0742 15.1183 11.7887 15.3288 11.5781C15.5394 11.3675 15.825 11.2492 16.1227 11.2492C16.4205 11.2492 16.7061 11.3675 16.9167 11.5781C17.1272 11.7887 17.2455 12.0742 17.2455 12.372ZM21 6.75C21 5.75544 20.6049 4.80161 19.9017 4.09835C19.1984 3.39509 18.2446 3 17.25 3H6.75C5.75544 3 4.80161 3.39509 4.09835 4.09835C3.39509 4.80161 3 5.75544 3 6.75V7.5H21V6.75Z" fill="#003C66"/>
<path d="M21 17.25V9H3V17.25C3 18.2446 3.39509 19.1984 4.09835 19.9017C4.80161 20.6049 5.75544 21 6.75 21H17.25C18.2446 21 19.1984 20.6049 19.9017 19.9017C20.6049 19.1984 21 18.2446 21 17.25ZM8.9955 12.372C8.9955 12.6698 8.87721 12.9553 8.66665 13.1659C8.4561 13.3765 8.17052 13.4948 7.87275 13.4948C7.57498 13.4948 7.2894 13.3765 7.07885 13.1659C6.86829 12.9553 6.75 12.6698 6.75 12.372C6.75 12.0742 6.86829 11.7887 7.07885 11.5781C7.2894 11.3675 7.57498 11.2492 7.87275 11.2492C8.17052 11.2492 8.4561 11.3675 8.66665 11.5781C8.87721 11.7887 8.9955 12.0742 8.9955 12.372ZM8.9955 16.122C8.9955 16.4198 8.87721 16.7053 8.66665 16.9159C8.4561 17.1265 8.17052 17.2448 7.87275 17.2448C7.57498 17.2448 7.2894 17.1265 7.07885 16.9159C6.86829 16.7053 6.75 16.4198 6.75 16.122C6.75 15.8242 6.86829 15.5387 7.07885 15.3281C7.2894 15.1175 7.57498 14.9993 7.87275 14.9993C8.17052 14.9993 8.4561 15.1175 8.66665 15.3281C8.87721 15.5387 8.9955 15.8242 8.9955 16.122ZM13.1235 12.372C13.1235 12.6698 13.0052 12.9553 12.7947 13.1659C12.5841 13.3765 12.2985 13.4948 12.0007 13.4948C11.703 13.4948 11.4174 13.3765 11.2068 13.1659C10.9963 12.9553 10.878 12.6698 10.878 12.372C10.878 12.0742 10.9963 11.7887 11.2068 11.5781C11.4174 11.3675 11.703 11.2492 12.0007 11.2492C12.2985 11.2492 12.5841 11.3675 12.7947 11.5781C13.0052 11.7887 13.1235 12.0742 13.1235 12.372ZM13.1235 16.122C13.1235 16.4198 13.0052 16.7053 12.7947 16.9159C12.5841 17.1265 12.2985 17.2448 12.0007 17.2448C11.703 17.2448 11.4174 17.1265 11.2068 16.9159C10.9963 16.7053 10.878 16.4198 10.878 16.122C10.878 15.8242 10.9963 15.5387 11.2068 15.3281C11.4174 15.1175 11.703 14.9993 12.0007 14.9993C12.2985 14.9993 12.5841 15.1175 12.7947 15.3281C13.0052 15.5387 13.1235 15.8242 13.1235 16.122ZM17.2455 12.372C17.2455 12.6698 17.1272 12.9553 16.9167 13.1659C16.7061 13.3765 16.4205 13.4948 16.1227 13.4948C15.825 13.4948 15.5394 13.3765 15.3288 13.1659C15.1183 12.9553 15 12.6698 15 12.372C15 12.0742 15.1183 11.7887 15.3288 11.5781C15.5394 11.3675 15.825 11.2492 16.1227 11.2492C16.4205 11.2492 16.7061 11.3675 16.9167 11.5781C17.1272 11.7887 17.2455 12.0742 17.2455 12.372ZM21 6.75C21 5.75544 20.6049 4.80161 19.9017 4.09835C19.1984 3.39509 18.2446 3 17.25 3H6.75C5.75544 3 4.80161 3.39509 4.09835 4.09835C3.39509 4.80161 3 5.75544 3 6.75V7.5H21V6.75Z" fill="#003C66"/>
</mask>
<g mask="url(#mask0_73_113)">
<path d="M9.11998 10.9158C14.496 4.38779 21.28 4.35579 24 5.15579L24.96 22.4358L1.91998 24.3558C2.07998 22.5958 3.74398 17.4438 9.11998 10.9158Z" fill="url(#paint0_linear_73_113)"/>
</g>
<defs>
<linearGradient id="paint0_linear_73_113" x1="18.24" y1="8.03577" x2="3.35998" y2="21.4758" gradientUnits="userSpaceOnUse">
<stop offset="0.145833" stop-color="#E43134"/>
<stop offset="1" stop-color="#E43134" stop-opacity="0.2"/>
</linearGradient>
</defs>
</svg>
