<svg width="24" height="24" viewBox="0 0 24 24" fill="none" xmlns="http://www.w3.org/2000/svg">
<path d="M5.7243 14.184V15.816H9.1323V17.592H5.7243V19.224H9.5163V21H3.85229V12.408H9.5163V14.184H5.7243Z" fill="#66A7D4"/>
<path d="M11.0007 21V12.408H14.0727C14.5127 12.408 14.9167 12.476 15.2847 12.612C15.6607 12.748 15.9847 12.94 16.2567 13.188C16.5287 13.428 16.7407 13.72 16.8927 14.064C17.0447 14.408 17.1207 14.788 17.1207 15.204C17.1207 15.62 17.0447 16 16.8927 16.344C16.7407 16.688 16.5287 16.984 16.2567 17.232C15.9847 17.472 15.6607 17.66 15.2847 17.796C14.9167 17.932 14.5127 18 14.0727 18H12.8727V21H11.0007ZM14.1327 16.224C14.5247 16.224 14.8167 16.128 15.0087 15.936C15.2007 15.744 15.2967 15.5 15.2967 15.204C15.2967 14.908 15.2007 14.664 15.0087 14.472C14.8167 14.28 14.5247 14.184 14.1327 14.184H12.8727V16.224H14.1327Z" fill="#66A7D4"/>
<path d="M18.2781 12.408H20.1501V21H18.2781V12.408Z" fill="#66A7D4"/>
<path d="M5.14298 7.80204C5.41661 7.80218 5.68106 7.85387 5.88828 7.94772C6.0955 8.04156 6.23173 8.17134 6.27223 8.31346L6.28595 8.40149V10.3991C6.28623 10.5508 6.1772 10.6969 5.98075 10.8081C5.78431 10.9192 5.51502 10.9872 5.22702 10.9984C4.93902 11.0095 4.65365 10.963 4.42829 10.8682C4.20293 10.7733 4.05427 10.6372 4.01221 10.4872L4.00001 10.3999V8.4023C4.00001 8.2431 4.12043 8.09042 4.33478 7.97785C4.54913 7.86528 4.83985 7.80204 5.14298 7.80204ZM9.71484 6.20136C9.98847 6.2015 10.2529 6.25319 10.4601 6.34704C10.6674 6.44088 10.8036 6.57066 10.8441 6.71278L10.8578 6.80081V10.3991C10.8581 10.5508 10.7491 10.6969 10.5526 10.8081C10.3562 10.9192 10.0869 10.9872 9.79888 10.9984C9.51088 11.0095 9.22552 10.963 9.00015 10.8682C8.77479 10.7733 8.62614 10.6372 8.58407 10.4872L8.57188 10.3999V6.80162C8.57188 6.64242 8.6923 6.48974 8.90664 6.37717C9.12099 6.2646 9.41171 6.20136 9.71484 6.20136ZM14.2867 4.60068C14.5603 4.60082 14.8248 4.65251 15.032 4.74636C15.2392 4.8402 15.3755 4.96998 15.416 5.1121L15.4281 5.20013V10.4031C15.4241 10.5531 15.3133 10.6969 15.1175 10.8061C14.9216 10.9153 14.6551 10.9821 14.3702 10.9933C14.0854 11.0044 13.8029 10.9591 13.5784 10.8663C13.354 10.7736 13.2038 10.64 13.1575 10.492L13.1437 10.4039V5.20094C13.1437 5.04174 13.2642 4.88906 13.4785 4.77649C13.6929 4.66392 13.9836 4.60068 14.2867 4.60068ZM18.8586 3C19.1322 3.00014 19.3966 3.05183 19.6039 3.14568C19.8111 3.23952 19.9473 3.3693 19.9878 3.51142L20 3.59945V10.4031C19.996 10.5531 19.8851 10.6969 19.6893 10.8061C19.4935 10.9153 19.2269 10.9821 18.9421 10.9933C18.6572 11.0044 18.3747 10.9591 18.1503 10.8663C17.9258 10.7736 17.7756 10.64 17.7293 10.492L17.7156 10.4039V3.60026C17.7156 3.44106 17.836 3.28838 18.0504 3.17581C18.2647 3.06324 18.5554 3 18.8586 3Z" fill="#ACC42A"/>
</svg>
