<svg width="24" height="24" viewBox="0 0 24 24" fill="none" xmlns="http://www.w3.org/2000/svg">
<path fill-rule="evenodd" clip-rule="evenodd" d="M12.0005 1.76001C11.2315 1.76001 10.4919 2.0553 9.93438 2.58489L3.55625 8.64201C3.06457 9.10911 2.67304 9.67136 2.40551 10.2945C2.13797 10.9177 2 11.5888 2 12.267V19C2 19.7957 2.31607 20.5587 2.87868 21.1213C3.44129 21.6839 4.20435 22 5 22H19C19.7957 22 20.5587 21.6839 21.1213 21.1213C21.6839 20.5587 22 19.7957 22 19V12.267C22 11.5888 21.862 10.9177 21.5945 10.2945C21.5645 10.2247 21.533 10.1557 21.5 10.0875V10C21.4858 10 21.4713 10.0001 21.4567 10.0002C21.1991 9.49386 20.8567 9.03431 20.4437 8.64195L14.0668 2.58501C13.5092 2.05534 12.7695 1.76001 12.0005 1.76001ZM19.2907 10.3299C19.2204 10.2467 19.1455 10.1674 19.0663 10.0921L12.6893 4.03508C12.5035 3.85852 12.2568 3.76001 12.0005 3.76001C11.7442 3.76001 11.4976 3.85845 11.3118 4.03501L4.93375 10.092C4.6388 10.3722 4.4038 10.7097 4.2433 11.0835C4.08278 11.4574 4 11.8601 4 12.267V19C4 19.2652 4.10536 19.5196 4.29289 19.7071C4.48043 19.8947 4.73478 20 5 20H8.13359C8.20006 19.8779 8.2693 19.7489 8.34191 19.6135L8.34195 19.6135C9.35437 17.7264 11.021 14.6201 14.97 12.152C16.4517 11.2259 18.0103 10.6501 19.2907 10.3299ZM10.4076 20H19C19.2652 20 19.5196 19.8947 19.7071 19.7071C19.8946 19.5196 20 19.2652 20 19V12.267C20 12.2501 19.9999 12.2332 19.9996 12.2163C18.8977 12.4704 17.4304 12.9727 16.03 13.848C12.8877 15.8119 11.3999 18.193 10.4076 20Z" fill="#011222"/>
</svg>
