<svg width="15" height="15" viewBox="0 0 15 15" fill="none" xmlns="http://www.w3.org/2000/svg">
<path d="M4.16646 14.2299H10.8334C12.1331 14.2299 12.7797 13.5707 12.7797 12.2649V6.56464C12.7797 5.75464 12.6918 5.40321 12.1896 4.88839L8.72405 1.36661C8.24727 0.876695 7.8578 0.770088 7.14852 0.770088H4.16646C2.87325 0.770088 2.22021 1.43545 2.22021 2.74152V12.2649C2.22021 13.5769 2.87325 14.2299 4.16646 14.2299ZM4.21655 13.2193C3.56995 13.2193 3.23084 12.8737 3.23084 12.2462V2.76027C3.23084 2.13884 3.56995 1.78071 4.22298 1.78071H7.0103V5.42839C7.0103 6.21937 7.41209 6.60857 8.19048 6.60857H11.7691V12.2462C11.7691 12.8737 11.4361 13.2193 10.7833 13.2193H4.21655ZM8.30352 5.66036C8.0587 5.66036 7.95798 5.56018 7.95798 5.30893V1.97545L11.5741 5.66062L8.30352 5.66036ZM7.98343 11.951V9.67232L7.9395 8.64911L8.47307 9.2017L9.04441 9.77919C9.13227 9.87321 9.25146 9.92357 9.37709 9.92357C9.62807 9.92357 9.81638 9.74143 9.81638 9.49044C9.81638 9.3458 9.76013 9.2392 9.65941 9.15134L7.85138 7.48795C7.71959 7.36848 7.62557 7.32455 7.49995 7.32455C7.38075 7.32455 7.2803 7.36848 7.14852 7.48795L5.34048 9.15134C5.24004 9.2392 5.18352 9.34607 5.18352 9.49044C5.18352 9.74143 5.37182 9.92357 5.62923 9.92357C5.74227 9.92357 5.87405 9.87321 5.96191 9.77893L6.52709 9.2017L7.06039 8.64911L7.02289 9.67232V11.9512C7.02289 12.2087 7.24254 12.416 7.49995 12.416C7.75709 12.416 7.98343 12.2084 7.98343 11.951Z" fill="#006CB8"/>
</svg>
