<svg width="15" height="15" viewBox="0 0 15 15" fill="none" xmlns="http://www.w3.org/2000/svg">
<path d="M6.875 9.375H10.625V10.625H6.875V9.375ZM5.625 4.375H4.375V5.625H5.625V4.375ZM6.875 8.125H10.625V6.875H6.875V8.125ZM6.875 5.625H10.625V4.375H6.875V5.625ZM5.625 6.875H4.375V8.125H5.625V6.875ZM13.125 3.125V11.875C13.125 12.5625 12.5625 13.125 11.875 13.125H3.125C2.4375 13.125 1.875 12.5625 1.875 11.875V3.125C1.875 2.4375 2.4375 1.875 3.125 1.875H11.875C12.5625 1.875 13.125 2.4375 13.125 3.125ZM11.875 3.125H3.125V11.875H11.875V3.125ZM5.625 9.375H4.375V10.625H5.625V9.375Z" fill="#006CB8"/>
</svg>
