<svg width="24" height="24" viewBox="0 0 24 24" fill="none" xmlns="http://www.w3.org/2000/svg">
<path fill-rule="evenodd" clip-rule="evenodd" d="M12 2C12.5523 2 13 2.44772 13 3V8.58579L14.2929 7.29289C14.6834 6.90237 15.3166 6.90237 15.7071 7.29289C16.0976 7.68342 16.0976 8.31658 15.7071 8.70711L12.7071 11.7071C12.3166 12.0976 11.6834 12.0976 11.2929 11.7071L8.29289 8.70711C7.90237 8.31658 7.90237 7.68342 8.29289 7.29289C8.68342 6.90237 9.31658 6.90237 9.70711 7.29289L11 8.58579V3C11 2.44772 11.4477 2 12 2ZM3.87868 3.87868C4.44129 3.31607 5.20435 3 6 3H8C8.55228 3 9 3.44772 9 4C9 4.55228 8.55228 5 8 5H6C5.73478 5 5.48043 5.10536 5.29289 5.29289C5.10536 5.48043 5 5.73478 5 6V12H6.586C7.11634 12.0001 7.62513 12.2109 8.00011 12.5859C8.00014 12.5859 8.00007 12.5859 8.00011 12.5859L10.4141 14.9999L13.5858 15L15.9998 12.586C15.9998 12.586 15.9998 12.586 15.9998 12.586C16.3748 12.211 16.8834 12.0001 17.4138 12H19V6C19 5.73478 18.8946 5.48043 18.7071 5.29289C18.5196 5.10536 18.2652 5 18 5H16C15.4477 5 15 4.55228 15 4C15 3.44772 15.4477 3 16 3H18C18.7956 3 19.5587 3.31607 20.1213 3.87868C20.6839 4.44129 21 5.20435 21 6V18C21 18.7957 20.6839 19.5587 20.1213 20.1213C19.5587 20.6839 18.7957 21 18 21H6C5.20435 21 4.44129 20.6839 3.87868 20.1213C3.31607 19.5587 3 18.7956 3 18V6C3 5.20435 3.31607 4.44129 3.87868 3.87868ZM5 14V18C5 18.2652 5.10536 18.5196 5.29289 18.7071C5.48043 18.8946 5.73478 19 6 19H18C18.2652 19 18.5196 18.8946 18.7071 18.7071C18.8946 18.5196 19 18.2652 19 18V14H17.4142L15.0002 16.414C15.0002 16.414 15.0002 16.414 15.0002 16.414C14.6252 16.789 14.1166 16.9999 13.5862 17H10.414C9.88366 16.9999 9.37487 16.7891 8.99989 16.4141C8.99986 16.4141 8.99993 16.4141 8.99989 16.4141L6.58589 14.0001L5 14Z" fill="black"/>
</svg>
