<svg width="15" height="15" viewBox="0 0 15 15" fill="none" xmlns="http://www.w3.org/2000/svg">
<path d="M7.5 13.75C6.63542 13.75 5.82292 13.5858 5.0625 13.2575C4.30208 12.9292 3.64063 12.484 3.07813 11.9219C2.51563 11.3594 2.07042 10.6979 1.7425 9.9375C1.41458 9.17708 1.25042 8.36458 1.25 7.5C1.25 6.63542 1.41417 5.82292 1.7425 5.0625C2.07083 4.30208 2.51604 3.64063 3.07813 3.07813C3.64063 2.51563 4.30208 2.07042 5.0625 1.7425C5.82292 1.41458 6.63542 1.25042 7.5 1.25C8.17708 1.25 8.81771 1.34896 9.42187 1.54687C10.026 1.74479 10.5833 2.02083 11.0938 2.375L10.1875 3.29688C9.79167 3.04688 9.36979 2.85167 8.92187 2.71125C8.47396 2.57083 8 2.50042 7.5 2.5C6.11458 2.5 4.93479 2.98708 3.96062 3.96125C2.98646 4.93542 2.49958 6.115 2.5 7.5C2.5 8.88542 2.98708 10.0652 3.96125 11.0394C4.93542 12.0135 6.115 12.5004 7.5 12.5C7.83333 12.5 8.15625 12.4688 8.46875 12.4063C8.78125 12.3438 9.08333 12.2552 9.375 12.1406L10.3125 13.0938C9.88542 13.3021 9.4375 13.4635 8.96875 13.5781C8.5 13.6927 8.01042 13.75 7.5 13.75ZM11.875 12.5V10.625H10V9.375H11.875V7.5H13.125V9.375H15V10.625H13.125V12.5H11.875ZM6.625 10.375L3.96875 7.71875L4.84375 6.84375L6.625 8.625L12.875 2.35938L13.75 3.23438L6.625 10.375Z" fill="#006CB8"/>
</svg>
