<svg width="52" height="52" viewBox="0 0 52 52" fill="none" xmlns="http://www.w3.org/2000/svg">
<path d="M36.4147 8.09247L43.5684 15.5496V43.9074H16.8447V44H43.6597V15.6435L36.4147 8.09247Z" fill="#909090"/>
<path d="M36.326 7.99994H16.7535V43.9075H43.5685V15.551L36.326 7.99994Z" fill="#F4F4F4"/>
<mask id="mask0_1_614" style="mask-type:alpha" maskUnits="userSpaceOnUse" x="16" y="8" width="28" height="36">
<path d="M36.3264 8H16.7539V43.9075H43.5689V15.551L36.3264 8Z" fill="#F4F4F4"/>
</mask>
<g mask="url(#mask0_1_614)">
<path d="M30.1546 25.0121C41.4701 15.3926 55.7491 15.3454 61.4742 16.5243L64 47L15 44.8169C15.3368 42.2234 18.8392 34.6316 30.1546 25.0121Z" fill="url(#paint0_linear_1_614)"/>
</g>
<path d="M16.5564 9.92853H8.3407V18.7061H34.1836V9.92853H16.5564Z" fill="#7A7B7C"/>
<path d="M34.3209 18.557H8.50757V9.77301H34.3209V18.557Z" fill="#DD2025"/>
<path d="M17.0672 11.2581H15.3867V17.4295H16.7084V15.3479L17.0003 15.3646C17.2839 15.3598 17.5648 15.309 17.8322 15.2142C18.0665 15.1336 18.2822 15.0063 18.466 14.8401C18.6531 14.6817 18.8006 14.4818 18.8967 14.2564C19.0257 13.8816 19.0717 13.4832 19.0317 13.0889C19.0237 12.8072 18.9743 12.5282 18.8852 12.2609C18.804 12.0679 18.6835 11.894 18.5315 11.7501C18.3794 11.6062 18.199 11.4956 18.0019 11.4252C17.8314 11.3635 17.6553 11.3187 17.476 11.2915C17.3403 11.2705 17.2032 11.2594 17.0659 11.2581M16.8229 14.2075H16.7084V12.3046H16.9566C17.0661 12.2967 17.176 12.3135 17.2781 12.3538C17.3803 12.3941 17.4721 12.4568 17.5467 12.5373C17.7014 12.7444 17.7841 12.9963 17.782 13.2548C17.782 13.5711 17.782 13.8578 17.4966 14.0596C17.291 14.1727 17.0569 14.2249 16.8229 14.2075ZM21.5427 11.2413C21.4 11.2413 21.2612 11.2516 21.1635 11.2555L20.8575 11.2632H19.8546V17.4346H21.0349C21.4859 17.447 21.935 17.3706 22.3566 17.2096C22.6959 17.0751 22.9964 16.8581 23.2309 16.5784C23.4589 16.2961 23.6226 15.9674 23.7105 15.6154C23.8115 15.2166 23.8607 14.8065 23.857 14.3952C23.882 13.9094 23.8444 13.4224 23.7452 12.9462C23.651 12.5957 23.4747 12.2726 23.2309 12.0038C23.0396 11.7867 22.8054 11.6116 22.543 11.4895C22.3177 11.3852 22.0808 11.3084 21.8372 11.2606C21.7403 11.2446 21.6422 11.2373 21.544 11.2388M21.31 16.3006H21.1815V12.3612H21.1982C21.4632 12.3307 21.7314 12.3785 21.9696 12.4988C22.144 12.6381 22.2861 12.8135 22.3862 13.0131C22.4941 13.2231 22.5563 13.4536 22.5687 13.6893C22.5803 13.9722 22.5687 14.2036 22.5687 14.3952C22.574 14.6159 22.5598 14.8366 22.5263 15.0548C22.4867 15.2788 22.4134 15.4955 22.309 15.6976C22.1909 15.8856 22.0312 16.0439 21.8423 16.1605C21.6837 16.2631 21.4958 16.311 21.3075 16.2968M27.8389 11.2632H24.7146V17.4346H26.0363V14.9866H27.7078V13.8398H26.0363V12.4101H27.8363V11.2632" fill="#464648"/>
<path d="M33.4327 31.4708C33.4327 31.4708 37.5316 30.7277 37.5316 32.1278C37.5316 33.528 34.9923 32.9584 33.4327 31.4708ZM30.4023 31.5775C29.7511 31.7214 29.1164 31.9321 28.5084 32.2062L29.0227 31.0491C29.537 29.8919 30.0706 28.3144 30.0706 28.3144C30.6843 29.3472 31.3983 30.3171 32.2023 31.2098C31.596 31.3002 30.9951 31.4238 30.4023 31.5801V31.5775ZM28.7797 23.2203C28.7797 22.0002 29.1744 21.6672 29.4817 21.6672C29.789 21.6672 30.1349 21.8151 30.1464 22.8745C30.0463 23.9398 29.8233 24.9899 29.4817 26.0039C29.0139 25.1526 28.7717 24.1956 28.7784 23.2242L28.7797 23.2203ZM22.8024 36.741C21.545 35.9888 25.4394 33.6732 26.1453 33.5987C26.1414 33.6 24.119 37.5278 22.8024 36.741ZM38.7286 32.2937C38.7157 32.1651 38.6 30.7418 36.0672 30.8022C35.0114 30.7852 33.9562 30.8596 32.9133 31.0247C31.9031 30.0069 31.0331 28.8589 30.3264 27.6111C30.7716 26.3246 31.0411 24.9839 31.1274 23.6254C31.0901 22.0825 30.7211 21.1979 29.5383 21.2108C28.3554 21.2236 28.1831 22.2586 28.3387 23.7989C28.4911 24.834 28.7785 25.8446 29.1937 26.8049C29.1937 26.8049 28.6473 28.5059 27.9247 30.1979C27.2021 31.8899 26.7084 32.7771 26.7084 32.7771C25.4519 33.1861 24.2691 33.7938 23.2048 34.5771C22.1454 35.5632 21.7147 36.3205 22.2727 37.0778C22.7535 37.731 24.4365 37.8788 25.9408 35.9078C26.7401 34.8898 27.4703 33.8194 28.1266 32.7038C28.1266 32.7038 30.4203 32.0751 31.1339 31.9028C31.8474 31.7305 32.7101 31.5942 32.7101 31.5942C32.7101 31.5942 34.8046 33.7015 36.8244 33.627C38.8443 33.5524 38.7466 32.4197 38.7337 32.2962" fill="#DD2025"/>
<path d="M36.2263 8.099V15.65H43.4688L36.2263 8.099Z" fill="#909090"/>
<path d="M36.3259 7.99994V15.551H43.5684L36.3259 7.99994Z" fill="#F4F4F4"/>
<path d="M16.9682 11.1589H15.2877V17.3304H16.6146V15.2501L16.9077 15.2668C17.1913 15.2619 17.4722 15.2111 17.7396 15.1164C17.974 15.0357 18.1896 14.9085 18.3734 14.7422C18.5591 14.5834 18.7053 14.3836 18.8003 14.1585C18.9293 13.7837 18.9753 13.3854 18.9353 12.9911C18.9273 12.7094 18.8779 12.4304 18.7887 12.1631C18.7076 11.9701 18.5871 11.7961 18.435 11.6523C18.283 11.5084 18.1026 11.3977 17.9054 11.3274C17.7342 11.265 17.5572 11.2198 17.377 11.1924C17.2413 11.1714 17.1042 11.1602 16.9669 11.1589M16.7239 14.1084H16.6094V12.2055H16.8589C16.9684 12.1976 17.0783 12.2144 17.1804 12.2547C17.2826 12.295 17.3744 12.3577 17.449 12.4382C17.6037 12.6452 17.6863 12.8972 17.6843 13.1557C17.6843 13.4719 17.6843 13.7587 17.3989 13.9605C17.1932 14.0736 16.9592 14.1245 16.7252 14.1071M21.4437 11.1422C21.301 11.1422 21.1622 11.1525 21.0645 11.1564L20.7623 11.1641H19.7594V17.3355H20.9397C21.3908 17.3479 21.8399 17.2714 22.2615 17.1105C22.6008 16.9759 22.9012 16.759 23.1357 16.4792C23.3638 16.197 23.5275 15.8683 23.6153 15.5162C23.7163 15.1175 23.7656 14.7074 23.7619 14.2961C23.7868 13.8103 23.7492 13.3233 23.65 12.8471C23.5559 12.4965 23.3796 12.1735 23.1357 11.9047C22.9444 11.6876 22.7102 11.5125 22.4479 11.3904C22.2226 11.2861 21.9856 11.2093 21.742 11.1615C21.6452 11.1455 21.5471 11.1382 21.4489 11.1396M21.2149 16.2015H21.0863V12.2621H21.103C21.3681 12.2316 21.6363 12.2794 21.8745 12.3997C22.0489 12.5389 22.191 12.7144 22.291 12.9139C22.399 13.1239 22.4612 13.3544 22.4736 13.5902C22.4852 13.8731 22.4736 14.1045 22.4736 14.2961C22.4788 14.5168 22.4646 14.7375 22.4312 14.9557C22.3915 15.1797 22.3183 15.3964 22.2139 15.5985C22.0957 15.7864 21.9361 15.9448 21.7472 16.0614C21.5885 16.164 21.4007 16.2118 21.2123 16.1977M27.7399 11.1641H24.6156V17.3355H25.9373V14.8875H27.6088V13.7407H25.9373V12.3109H27.7373V11.1641" fill="white"/>
<defs>
<linearGradient id="paint0_linear_1_614" x1="49.3505" y1="20.7682" x2="28.0064" y2="48.3051" gradientUnits="userSpaceOnUse">
<stop offset="0.117154" stop-color="#999999" stop-opacity="0.39"/>
<stop offset="1" stop-color="#979EA4" stop-opacity="0"/>
</linearGradient>
</defs>
</svg>
