<svg width="52" height="52" viewBox="0 0 52 52" fill="none" xmlns="http://www.w3.org/2000/svg">
<path d="M25 5V16.25C25 17.2446 25.3951 18.1984 26.0983 18.9017C26.8016 19.6049 27.7554 20 28.75 20H40V41.25C40 42.2446 39.6049 43.1984 38.9016 43.9016C38.1984 44.6049 37.2446 45 36.25 45H13.75C12.7554 45 11.8016 44.6049 11.0983 43.9016C10.3951 43.1984 10 42.2446 10 41.25V8.75C10 7.75544 10.3951 6.80161 11.0983 6.09835C11.8016 5.39509 12.7554 5 13.75 5H25ZM27.5 5.625V16.25C27.5 16.5815 27.6317 16.8995 27.8661 17.1339C28.1005 17.3683 28.4185 17.5 28.75 17.5H39.375L27.5 5.625Z" fill="#C9CDD7"/>
<mask id="mask0_1_606" style="mask-type:alpha" maskUnits="userSpaceOnUse" x="10" y="5" width="30" height="40">
<path d="M25 5V16.25C25 17.2446 25.3951 18.1984 26.0983 18.9017C26.8016 19.6049 27.7554 20 28.75 20H40V41.25C40 42.2446 39.6049 43.1984 38.9016 43.9016C38.1984 44.6049 37.2446 45 36.25 45H13.75C12.7554 45 11.8016 44.6049 11.0983 43.9016C10.3951 43.1984 10 42.2446 10 41.25V8.75C10 7.75544 10.3951 6.80161 11.0983 6.09835C11.8016 5.39509 12.7554 5 13.75 5H25ZM27.5 5.625V16.25C27.5 16.5815 27.6317 16.8995 27.8661 17.1339C28.1005 17.3683 28.4185 17.5 28.75 17.5H39.375L27.5 5.625Z" fill="#C9CDD7"/>
</mask>
<g mask="url(#mask0_1_606)">
<path d="M25 22.3203C36.2 11.3044 50.3333 11.2504 56 12.6004L58.5 47.5L10 45C10.3333 42.03 13.8 33.3362 25 22.3203Z" fill="url(#paint0_linear_1_606)"/>
</g>
<circle cx="38.5" cy="40.5" r="7.5" fill="#006CB8"/>
<path d="M38.5 47C34.9102 47 32 44.0898 32 40.5C32 36.9102 34.9102 34 38.5 34C42.0898 34 45 36.9102 45 40.5C45 44.0898 42.0898 47 38.5 47ZM38.5 35.413C35.6902 35.413 33.413 37.6909 33.413 40.5C33.413 43.3091 35.6902 45.5869 38.5 45.5869C41.3098 45.5869 43.5869 43.3091 43.5869 40.5C43.5869 37.6909 41.3098 35.413 38.5 35.413ZM39.7717 43.2201H37.2283V40.3304H35.6386L38.5 37.6386L41.3614 40.3304H39.7717V43.2201Z" fill="#FBFBFB"/>
<defs>
<linearGradient id="paint0_linear_1_606" x1="44" y1="17.4603" x2="18.9092" y2="45.4393" gradientUnits="userSpaceOnUse">
<stop offset="0.117154" stop-color="#999999"/>
<stop offset="1" stop-color="#979EA4" stop-opacity="0"/>
</linearGradient>
</defs>
</svg>
