<svg width="24" height="24" viewBox="0 0 24 24" fill="none" xmlns="http://www.w3.org/2000/svg">
<path fill-rule="evenodd" clip-rule="evenodd" d="M11.9999 1.5C11.6021 1.5 11.2206 1.65804 10.9393 1.93934C10.658 2.22064 10.4999 2.60218 10.4999 3V3.15C8.8059 3.4958 7.28335 4.41627 6.18999 5.75565C5.09662 7.09502 4.4996 8.77102 4.49995 10.5V16.5L2.69245 18.492C1.81795 19.4565 2.50195 21 3.80245 21H9.40195C9.66526 21.456 10.044 21.8347 10.5 22.098C10.9561 22.3613 11.4734 22.4999 11.9999 22.4999C12.5265 22.4999 13.0438 22.3613 13.4999 22.098C13.9559 21.8347 14.3346 21.456 14.5979 21H20.1974C21.4979 21 22.1819 19.455 21.3074 18.492L19.4999 16.5V10.5C19.5003 8.77102 18.9033 7.09502 17.8099 5.75565C16.7165 4.41627 15.194 3.4958 13.4999 3.15V3C13.4999 2.60218 13.3419 2.22064 13.0606 1.93934C12.7793 1.65804 12.3978 1.5 11.9999 1.5ZM6.74995 17.37L6.16495 18.012L5.49595 18.75H18.5039L17.8334 18.012L17.2499 17.3685V10.5C17.2499 9.81056 17.1142 9.12787 16.8503 8.49091C16.5865 7.85395 16.1998 7.2752 15.7123 6.78769C15.2248 6.30018 14.646 5.91347 14.009 5.64963C13.3721 5.3858 12.6894 5.25 11.9999 5.25C11.3105 5.25 10.6278 5.3858 9.99086 5.64963C9.3539 5.91347 8.77515 6.30018 8.28764 6.78769C7.80013 7.2752 7.41342 7.85395 7.14958 8.49091C6.88574 9.12787 6.74995 9.81056 6.74995 10.5V17.37Z" fill="black"/>
</svg>
