<svg width="24" height="24" viewBox="0 0 24 24" fill="none" xmlns="http://www.w3.org/2000/svg">
<path fill-rule="evenodd" clip-rule="evenodd" d="M15.7023 3.53017C16.3117 2.92089 17.1382 2.57861 18 2.57861C18.8618 2.57861 19.6883 2.92089 20.2978 3.53017L20.4699 3.7023C21.0792 4.31176 21.4216 5.1384 21.4216 6.00019C21.4216 6.86197 21.0793 7.68847 20.47 8.29794L8.88391 19.8841C8.72371 20.0443 8.52299 20.1579 8.3032 20.2129L4.3032 21.2129C3.87723 21.3194 3.42662 21.1945 3.11614 20.8841C2.80567 20.5736 2.68086 20.123 2.78735 19.697L3.78735 15.697C3.8423 15.4772 3.95594 15.2765 4.11614 15.1163L14.1156 5.11687C14.1154 5.11706 14.1158 5.11668 14.1156 5.11687C14.1158 5.11668 14.1165 5.11592 14.1167 5.11573L15.7023 3.53017ZM15 7.76795L6.12873 16.6392L5.71799 18.2822L7.36096 17.8715L16.2323 9.00019L15 7.76795ZM18 7.23242L16.7678 6.00019L17.4698 5.2982C17.4697 5.29825 17.4698 5.29816 17.4698 5.2982C17.6104 5.15768 17.8012 5.07861 18 5.07861C18.1989 5.07861 18.3896 5.1576 18.5303 5.2982L18.702 5.46994C18.8426 5.61058 18.9216 5.80131 18.9216 6.00019C18.9216 6.199 18.8427 6.38967 18.7021 6.5303C18.7021 6.53035 18.7022 6.53026 18.7021 6.5303L18 7.23242ZM11.75 20.0002C11.75 19.3098 12.3097 18.7502 13 18.7502H21C21.6904 18.7502 22.25 19.3098 22.25 20.0002C22.25 20.6905 21.6904 21.2502 21 21.2502H13C12.3097 21.2502 11.75 20.6905 11.75 20.0002Z" fill="#006CB8"/>
</svg>
