<svg width="156" height="34" viewBox="0 0 156 34" fill="none" xmlns="http://www.w3.org/2000/svg">
<path d="M34.9119 9.40234H37.8257C38.7125 9.40234 39.3459 9.64894 39.8526 10.0188C40.3594 10.3887 40.7394 10.8819 40.7394 11.4984C40.7394 11.9916 40.7394 12.7314 40.4861 13.1013C40.2327 13.4712 39.8526 13.7178 39.3459 13.9644L37.9524 14.211H36.6855V16.677H34.9119V9.40234ZM36.6855 11.0052V12.8547H37.699L38.5858 12.6081C38.8392 12.3615 38.8392 12.1149 38.8392 11.8683C38.8392 11.6217 38.7125 11.3751 38.4591 11.2518C38.2057 11.0052 37.9524 11.0052 37.5723 11.0052H36.6855ZM41.7529 9.40234H46.4403V10.8819H43.3998V12.1149H46.3136V13.7178H43.3998V15.0741H46.4403V16.677H41.7529V9.40234ZM48.0872 9.40234H51.1276C51.8877 9.40234 52.3945 9.64894 52.9012 10.0188C53.2813 10.3887 53.5346 11.0052 53.5346 11.4984C53.6613 11.9916 53.5346 12.3615 53.4079 12.7314C53.1546 13.1013 52.5211 13.5945 51.8877 13.7178L54.2947 16.677H52.1411L49.9874 13.7178H49.7341V16.677H48.0872V9.40234ZM49.7341 10.8819V12.7314H50.3675C51.2543 12.7314 51.761 12.2382 51.761 11.6217C51.761 10.8819 51.0009 10.8819 50.4942 10.8819H49.7341ZM54.2947 9.40234H59.9956V11.0052H58.0953V16.677H56.195V11.0052H54.2947V9.40234ZM62.1492 9.40234H63.9228L66.4565 16.677H64.5562L64.1762 15.3207H61.8958L61.3891 16.677H59.6155L62.1492 9.40234ZM63.036 11.745L62.1492 13.9644H63.6694L63.036 11.745ZM68.2301 9.40234H70.0037L71.2705 13.4712L72.7908 9.40234H74.5643L75.4511 16.677H73.8042L73.2975 12.6081L71.6506 16.677H71.0172L69.3703 12.4848L68.7368 16.677H67.0899L68.2301 9.40234ZM76.5913 9.40234H78.3649V16.677H76.5913V9.40234ZM84.9525 9.52564H86.5994V16.677H84.8258L81.6587 12.3615V16.677H80.0118V9.52564H81.6587L84.9525 13.9644V9.52564ZM90.1466 9.40234H92.0469L94.4539 16.677H92.6803L92.1736 15.3207H89.8932L89.3865 16.677H87.6129L90.1466 9.40234ZM91.0334 11.745L90.2733 13.9644H91.7935L91.0334 11.745Z" fill="#082313"/>
<path d="M1.25024 21.5897L8.09951 11.1258C8.98738 9.52545 9.87525 9.40234 12.5388 9.40234H18.3734C17.9929 9.77166 17.3587 10.2641 16.9782 11.0027L11.0168 20.2355C10.3826 21.2204 9.24106 21.5897 7.719 21.5897H1.25024Z" fill="#006CB8"/>
<path d="M24.4491 9.40234C21.7947 9.40234 20.9099 9.52564 19.8988 11.1285L16.2332 16.677H23.0587C24.1963 16.677 25.3339 16.1838 25.8395 15.3207L29.7578 9.40234H24.4491Z" fill="#ACC42A"/>
<path d="M21.6683 0.617188C24.3227 0.617188 25.0811 0.739353 26.0923 2.20535L29.7578 7.70285H23.0587C21.9211 7.70285 20.7835 7.21419 20.278 6.48119L16.2332 0.617188H21.6683Z" fill="#ED1B2F"/>
<path d="M35.8782 21.8476L37.7436 19.9356H38.709L36.5424 22.1052L38.7214 24.728H37.753L36.0272 22.5956L35.8782 22.7446V24.728H35.155V19.9356H35.8782V21.8476ZM40.0933 19.9356V24.728H39.3701V19.9356H40.0933ZM41.9681 19.9356V24.0483H43.3772V24.728H41.2449V19.9356H41.9681ZM47.1454 23.5641H45.0937L44.5598 24.728H43.7807L46.1521 19.6345L48.4397 24.728H47.6482L47.1454 23.5641ZM46.8505 22.8843L46.1397 21.2548L45.3948 22.8843H46.8505ZM49.0419 24.728V19.6097L52.5369 23.2661V19.9356H53.2601V25.0198L49.7651 21.3727V24.728H49.0419ZM56.9258 22.2325H58.9061V22.3908C58.9061 22.7508 58.8637 23.0695 58.7788 23.3468C58.6961 23.6034 58.5564 23.8434 58.3598 24.0669C57.9149 24.5677 57.349 24.818 56.662 24.818C55.9915 24.818 55.4173 24.5759 54.9393 24.0917C54.4613 23.6054 54.2223 23.0219 54.2223 22.3411C54.2223 21.6458 54.4654 21.0561 54.9517 20.5719C55.438 20.0856 56.0298 19.8425 56.7271 19.8425C57.1017 19.8425 57.4514 19.919 57.7763 20.0722C58.0867 20.2253 58.3919 20.4736 58.6919 20.8171L58.1767 21.3106C57.7835 20.7871 57.3045 20.5253 56.7396 20.5253C56.2326 20.5253 55.8074 20.7002 55.4639 21.0499C55.1204 21.3934 54.9486 21.8238 54.9486 22.3411C54.9486 22.875 55.14 23.3147 55.5228 23.6603C55.8808 23.981 56.2688 24.1414 56.6868 24.1414C57.0427 24.1414 57.3624 24.0214 57.6459 23.7813C57.9294 23.5392 58.0877 23.2495 58.1208 22.9122H56.9258V22.2325ZM62.5035 22.7819V24.728H61.7803V19.9356H62.5997C63.0012 19.9356 63.3043 19.9635 63.5092 20.0194C63.7161 20.0753 63.8982 20.1808 64.0555 20.336C64.3307 20.605 64.4683 20.9444 64.4683 21.3541C64.4683 21.7928 64.3214 22.1404 64.0275 22.397C63.7337 22.6536 63.3374 22.7819 62.8387 22.7819H62.5035ZM62.5035 22.1114H62.7736C63.4378 22.1114 63.7699 21.8559 63.7699 21.3448C63.7699 20.8502 63.4275 20.6029 62.7425 20.6029H62.5035V22.1114ZM67.8578 20.6153H65.9364V21.7669H67.8019V22.4467H65.9364V24.0483H67.8578V24.728H65.2132V19.9356H67.8578V20.6153ZM70.4309 22.6857L71.9146 24.728H71.03L69.6611 22.7664H69.5308V24.728H68.8076V19.9356H69.6549C70.2881 19.9356 70.7454 20.0546 71.0268 20.2925C71.3372 20.5574 71.4924 20.9071 71.4924 21.3417C71.4924 21.681 71.3952 21.9728 71.2007 22.217C71.0062 22.4611 70.7496 22.6174 70.4309 22.6857ZM69.5308 22.1363H69.7605C70.4454 22.1363 70.7878 21.8745 70.7878 21.351C70.7878 20.8606 70.4547 20.6153 69.7884 20.6153H69.5308V22.1363ZM73.9042 20.6153V24.728H73.181V20.6153H72.0791V19.9356H75.003V20.6153H73.9042ZM78.2031 23.5641H76.1514L75.6175 24.728H74.8384L77.2098 19.6345L79.4974 24.728H78.7059L78.2031 23.5641ZM77.9082 22.8843L77.1974 21.2548L76.4525 22.8843H77.9082ZM79.932 24.728L80.9407 19.5755L82.5858 23.3002L84.2898 19.5755L85.1962 24.728H84.4544L83.9919 21.8352L82.5734 24.9484L81.1953 21.8321L80.68 24.728H79.932ZM86.9375 19.9356V24.728H86.2143V19.9356H86.9375ZM88.089 24.728V19.6097L91.584 23.2661V19.9356H92.3072V25.0198L88.8122 21.3727V24.728H88.089ZM96.3113 23.5641H94.2596L93.7257 24.728H92.9466L95.318 19.6345L97.6056 24.728H96.8141L96.3113 23.5641ZM96.0164 22.8843L95.3056 21.2548L94.5607 22.8843H96.0164ZM35.8782 25.9356V30.728H35.155V25.9356H35.8782ZM37.0297 30.728V25.6097L40.5247 29.2661V25.9356H41.248V31.0198L37.753 27.3727V30.728H37.0297ZM43.7218 26.6153V30.728H42.9986V26.6153H41.8967V25.9356H44.8206V26.6153H43.7218ZM48.1107 26.6153H46.1894V27.7669H48.0548V28.4467H46.1894V30.0483H48.1107V30.728H45.4662V25.9356H48.1107V26.6153ZM50.6838 28.6857L52.1675 30.728H51.2829L49.9141 28.7664H49.7837V30.728H49.0605V25.9356H49.9079C50.5411 25.9356 50.9984 26.0546 51.2798 26.2925C51.5902 26.5574 51.7454 26.9071 51.7454 27.3417C51.7454 27.681 51.6481 27.9728 51.4536 28.217C51.2591 28.4611 51.0025 28.6174 50.6838 28.6857ZM49.7837 28.1363H50.0134C50.6983 28.1363 51.0408 27.8745 51.0408 27.351C51.0408 26.8606 50.7076 26.6153 50.0413 26.6153H49.7837V28.1363ZM52.8907 30.728V25.6097L56.3857 29.2661V25.9356H57.1089V31.0198L53.6139 27.3727V30.728H52.8907ZM61.113 29.5641H59.0613L58.5274 30.728H57.7483L60.1197 25.6345L62.4073 30.728H61.6158L61.113 29.5641ZM60.8181 28.8843L60.1073 27.2548L59.3624 28.8843H60.8181ZM65.7192 26.6495L65.1325 26.9971C65.0229 26.8068 64.9184 26.6826 64.819 26.6247C64.7156 26.5584 64.5821 26.5253 64.4186 26.5253C64.2179 26.5253 64.0513 26.5822 63.9189 26.6961C63.7865 26.8078 63.7203 26.9485 63.7203 27.1182C63.7203 27.352 63.8941 27.5403 64.2417 27.6831L64.7197 27.8786C65.1087 28.0359 65.3933 28.2283 65.5733 28.456C65.7533 28.6815 65.8433 28.9588 65.8433 29.2878C65.8433 29.7286 65.6964 30.0928 65.4026 30.3804C65.1067 30.6701 64.7394 30.8149 64.3007 30.8149C63.8848 30.8149 63.5413 30.6918 63.2702 30.4456C63.0032 30.1993 62.8367 29.8527 62.7705 29.4058L63.503 29.2444C63.5361 29.5258 63.594 29.7203 63.6768 29.8279C63.8258 30.0348 64.0431 30.1383 64.3286 30.1383C64.5542 30.1383 64.7414 30.0628 64.8904 29.9117C65.0394 29.7606 65.1139 29.5692 65.1139 29.3375C65.1139 29.2444 65.1005 29.1595 65.0736 29.083C65.0487 29.0043 65.0084 28.9329 64.9525 28.8688C64.8987 28.8026 64.8283 28.7415 64.7414 28.6857C64.6545 28.6277 64.5511 28.5729 64.431 28.5211L63.9686 28.3287C63.3126 28.0514 62.9846 27.6458 62.9846 27.112C62.9846 26.7519 63.1222 26.4508 63.3974 26.2087C63.6727 25.9646 64.0151 25.8425 64.4248 25.8425C64.9773 25.8425 65.4088 26.1115 65.7192 26.6495ZM67.4387 25.9356V30.728H66.7155V25.9356H67.4387ZM68.3513 28.3101C68.3513 27.6355 68.5986 27.0561 69.0931 26.5719C69.5856 26.0877 70.1774 25.8456 70.8686 25.8456C71.5514 25.8456 72.137 26.0898 72.6254 26.5781C73.1158 27.0665 73.361 27.6531 73.361 28.338C73.361 29.0271 73.1147 29.6117 72.6223 30.0917C72.1277 30.5739 71.5307 30.8149 70.8313 30.8149C70.2126 30.8149 69.657 30.6008 69.1645 30.1724C68.6224 29.6986 68.3513 29.0778 68.3513 28.3101ZM69.0807 28.3194C69.0807 28.8491 69.2587 29.2847 69.6146 29.6261C69.9684 29.9676 70.3771 30.1383 70.8406 30.1383C71.3435 30.1383 71.7677 29.9645 72.1132 29.6168C72.4588 29.2651 72.6316 28.8367 72.6316 28.3318C72.6316 27.8207 72.4609 27.3924 72.1194 27.0468C71.7801 26.6992 71.36 26.5253 70.8592 26.5253C70.3605 26.5253 69.9394 26.6992 69.596 27.0468C69.2525 27.3903 69.0807 27.8145 69.0807 28.3194ZM74.2704 30.728V25.6097L77.7654 29.2661V25.9356H78.4886V31.0198L74.9936 27.3727V30.728H74.2704ZM82.4927 29.5641H80.441L79.9071 30.728H79.1281L81.4994 25.6345L83.787 30.728H82.9955L82.4927 29.5641ZM82.1978 28.8843L81.487 27.2548L80.7421 28.8843H82.1978ZM85.1124 25.9356V30.0483H86.5216V30.728H84.3892V25.9356H85.1124Z" fill="#E43134"/>
<g clip-path="url(#clip0_8979_7928)">
<path d="M107.832 25.543V16.474H110.973C111.378 16.474 111.758 16.5415 112.113 16.6767C112.476 16.8118 112.792 17.0018 113.063 17.2466C113.333 17.4915 113.544 17.7871 113.696 18.1333C113.856 18.471 113.937 18.8468 113.937 19.2606C113.937 19.6659 113.856 20.0416 113.696 20.3878C113.544 20.7256 113.333 21.0169 113.063 21.2618C112.792 21.5067 112.476 21.6967 112.113 21.8318C111.758 21.9669 111.378 22.0344 110.973 22.0344H109.263V25.543H107.832ZM111.011 20.6665C111.247 20.6665 111.458 20.6285 111.644 20.5525C111.83 20.4681 111.986 20.3583 112.113 20.2232C112.239 20.0881 112.336 19.9361 112.404 19.7672C112.472 19.5983 112.505 19.4294 112.505 19.2606C112.505 19.0832 112.472 18.9101 112.404 18.7412C112.336 18.5724 112.239 18.4246 112.113 18.2979C111.986 18.1628 111.83 18.053 111.644 17.9686C111.458 17.8842 111.247 17.8419 111.011 17.8419H109.263V20.6665H111.011ZM114.774 25.543V16.474H117.915C118.321 16.474 118.701 16.5415 119.055 16.6767C119.418 16.8118 119.735 17.0018 120.005 17.2466C120.276 17.4915 120.487 17.7871 120.639 18.1333C120.799 18.471 120.879 18.8468 120.879 19.2606C120.879 19.6659 120.799 20.0416 120.639 20.3878C120.487 20.7256 120.276 21.0169 120.005 21.2618C119.735 21.5067 119.418 21.6967 119.055 21.8318C118.701 21.9669 118.321 22.0344 117.915 22.0344H116.205V25.543H114.774ZM117.953 20.6665C118.19 20.6665 118.401 20.6285 118.587 20.5525C118.772 20.4681 118.929 20.3583 119.055 20.2232C119.182 20.0881 119.279 19.9361 119.347 19.7672C119.414 19.5983 119.448 19.4294 119.448 19.2606C119.448 19.0832 119.414 18.9101 119.347 18.7412C119.279 18.5724 119.182 18.4246 119.055 18.2979C118.929 18.1628 118.772 18.053 118.587 17.9686C118.401 17.8842 118.19 17.8419 117.953 17.8419H116.205V20.6665H117.953ZM129.497 24.1117C129.066 24.6183 128.547 25.0194 127.939 25.315C127.331 25.6021 126.647 25.7456 125.887 25.7456C125.211 25.7456 124.587 25.6274 124.012 25.391C123.438 25.1461 122.936 24.8126 122.505 24.3903C122.083 23.9597 121.749 23.4573 121.504 22.8831C121.268 22.3089 121.15 21.684 121.15 21.0085C121.15 20.3414 121.268 19.7208 121.504 19.1466C121.749 18.5639 122.083 18.0615 122.505 17.6393C122.936 17.2086 123.438 16.8751 124.012 16.6387C124.587 16.3938 125.211 16.2713 125.887 16.2713C126.588 16.2713 127.217 16.4022 127.774 16.664C128.332 16.9173 128.821 17.2804 129.244 17.7533L128.23 18.7412C127.926 18.3781 127.584 18.1037 127.204 17.9179C126.833 17.7322 126.394 17.6393 125.887 17.6393C125.439 17.6393 125.013 17.7195 124.608 17.8799C124.211 18.0319 123.865 18.2557 123.569 18.5512C123.274 18.8383 123.037 19.193 122.86 19.6152C122.691 20.029 122.606 20.4934 122.606 21.0085C122.606 21.5236 122.691 21.9922 122.86 22.4144C123.037 22.8282 123.274 23.1828 123.569 23.4784C123.865 23.7655 124.211 23.9892 124.608 24.1497C125.013 24.3017 125.439 24.3777 125.887 24.3777C126.427 24.3777 126.909 24.2679 127.331 24.0484C127.753 23.8204 128.129 23.5079 128.458 23.1111L129.497 24.1117ZM136.291 23.8204L137.191 24.9603L136.152 25.7456L135.506 24.935C135.21 25.1968 134.885 25.3994 134.531 25.543C134.184 25.6781 133.796 25.7456 133.365 25.7456C132.901 25.7456 132.466 25.6654 132.061 25.505C131.655 25.3445 131.301 25.125 130.997 24.8463C130.701 24.5592 130.465 24.2215 130.287 23.833C130.119 23.4362 130.034 23.0097 130.034 22.5537C130.034 22.0387 130.165 21.5489 130.427 21.0845C130.697 20.6116 131.064 20.219 131.529 19.9065C131.351 19.6701 131.208 19.4337 131.098 19.1972C130.988 18.9523 130.933 18.7032 130.933 18.4499C130.933 18.1459 130.993 17.8631 131.111 17.6013C131.229 17.3311 131.389 17.0989 131.592 16.9046C131.795 16.7104 132.031 16.5584 132.301 16.4487C132.58 16.3304 132.88 16.2713 133.201 16.2713C133.488 16.2713 133.745 16.3136 133.973 16.398C134.21 16.474 134.417 16.5838 134.594 16.7273C134.771 16.8624 134.919 17.0229 135.037 17.2086C135.164 17.386 135.265 17.5802 135.341 17.7913L134.176 18.4119C134.1 18.2093 133.986 18.0193 133.834 17.8419C133.69 17.6562 133.484 17.5633 133.213 17.5633C132.952 17.5633 132.736 17.6393 132.567 17.7913C132.399 17.9433 132.314 18.1544 132.314 18.4246C132.314 18.6864 132.415 18.9439 132.618 19.1972L135.481 22.8071L136.253 21.5405L137.317 22.1864L136.291 23.8204ZM133.416 24.4537C133.948 24.4537 134.383 24.2848 134.721 23.947L132.301 20.8818C132.006 21.076 131.774 21.3209 131.605 21.6165C131.444 21.9036 131.364 22.2075 131.364 22.5284C131.364 22.8155 131.419 23.0773 131.529 23.3137C131.639 23.5502 131.786 23.7528 131.972 23.9217C132.158 24.0906 132.373 24.2215 132.618 24.3143C132.871 24.4072 133.137 24.4537 133.416 24.4537ZM140.786 25.7456C140.423 25.7456 140.068 25.6907 139.722 25.581C139.384 25.4796 139.067 25.3234 138.772 25.1123C138.485 24.9012 138.231 24.6394 138.012 24.327C137.792 24.0146 137.623 23.6515 137.505 23.2377L138.873 22.6804C138.932 22.9168 139.017 23.1406 139.126 23.3517C139.245 23.5544 139.384 23.7317 139.544 23.8837C139.713 24.0357 139.899 24.1581 140.102 24.251C140.313 24.3355 140.545 24.3777 140.798 24.3777C141.009 24.3777 141.212 24.3523 141.406 24.3017C141.601 24.2426 141.769 24.1581 141.913 24.0484C142.057 23.9386 142.171 23.8035 142.255 23.643C142.348 23.4826 142.394 23.2968 142.394 23.0857C142.394 22.9 142.361 22.7311 142.293 22.5791C142.225 22.4271 142.12 22.2878 141.976 22.1611C141.833 22.0344 141.643 21.9162 141.406 21.8064C141.17 21.6882 140.887 21.57 140.558 21.4518L139.988 21.2491C139.743 21.1647 139.49 21.0549 139.228 20.9198C138.974 20.7763 138.742 20.6074 138.531 20.4132C138.328 20.2105 138.16 19.9741 138.024 19.7039C137.898 19.4337 137.834 19.117 137.834 18.7539C137.834 18.4161 137.902 18.0995 138.037 17.8039C138.181 17.5 138.379 17.234 138.632 17.006C138.886 16.778 139.186 16.6007 139.532 16.474C139.886 16.3389 140.275 16.2713 140.697 16.2713C141.136 16.2713 141.52 16.3347 141.85 16.4613C142.187 16.5795 142.47 16.7315 142.698 16.9173C142.926 17.1031 143.108 17.31 143.243 17.538C143.386 17.7575 143.492 17.9644 143.56 18.1586L142.268 18.7032C142.225 18.5766 142.162 18.4499 142.078 18.3233C142.002 18.1882 141.9 18.0699 141.774 17.9686C141.647 17.8673 141.495 17.7828 141.318 17.7153C141.149 17.6477 140.95 17.614 140.722 17.614C140.52 17.614 140.33 17.6435 140.152 17.7026C139.975 17.7533 139.819 17.8293 139.684 17.9306C139.557 18.0319 139.456 18.1502 139.38 18.2853C139.304 18.4204 139.266 18.5681 139.266 18.7286C139.266 19.0495 139.397 19.3112 139.658 19.5139C139.929 19.7081 140.321 19.8939 140.836 20.0712L141.406 20.2739C141.761 20.3921 142.086 20.5314 142.382 20.6918C142.677 20.8523 142.935 21.0465 143.154 21.2745C143.374 21.494 143.543 21.7516 143.661 22.0471C143.788 22.3426 143.851 22.6846 143.851 23.0731C143.851 23.5459 143.754 23.9513 143.56 24.289C143.374 24.6183 143.133 24.8928 142.838 25.1123C142.542 25.3319 142.213 25.4923 141.85 25.5936C141.487 25.695 141.132 25.7456 140.786 25.7456Z" fill="#006CB8"/>
<path d="M110.12 29.3658C110.12 29.6924 110.012 29.9656 109.794 30.1853C109.574 30.4071 109.305 30.518 108.987 30.518C108.666 30.518 108.397 30.4071 108.18 30.1853C107.962 29.9656 107.853 29.6924 107.853 29.3658C107.853 29.0393 107.962 28.7661 108.18 28.5464C108.397 28.3245 108.666 28.2136 108.987 28.2136C109.307 28.2136 109.576 28.3256 109.794 28.5494C110.012 28.7692 110.12 29.0413 110.12 29.3658ZM108.143 29.3658C108.143 29.6205 108.223 29.831 108.383 29.9974C108.545 30.1638 108.746 30.2469 108.987 30.2469C109.227 30.2469 109.427 30.1638 109.587 29.9974C109.75 29.8331 109.831 29.6226 109.831 29.3658C109.831 29.1091 109.75 28.8986 109.587 28.7343C109.427 28.5679 109.227 28.4847 108.987 28.4847C108.746 28.4847 108.545 28.5679 108.383 28.7343C108.223 28.9006 108.143 29.1112 108.143 29.3658ZM111.94 30.4688H111.656V28.2629H112.001L113.074 29.9789H113.086L113.074 29.5538V28.2629H113.357V30.4688H113.061L111.94 28.6696H111.928L111.94 29.0947V30.4688ZM116.241 30.4688H115.003V28.2629H115.286V30.1976H116.241V30.4688ZM118.022 30.4688H117.739V28.2629H118.022V30.4688ZM119.952 30.4688H119.668V28.2629H120.013L121.086 29.9789H121.098L121.086 29.5538V28.2629H121.369V30.4688H121.073L119.952 28.6696H119.94L119.952 29.0947V30.4688ZM124.303 28.2629V28.534H123.298V29.2334H124.204V29.4983H123.298V30.1976H124.303V30.4688H123.015V28.2629H124.303ZM129.033 29.8803C129.033 30.0734 128.962 30.2285 128.821 30.3455C128.677 30.4605 128.502 30.518 128.297 30.518C128.114 30.518 127.953 30.4646 127.813 30.3578C127.673 30.251 127.577 30.1052 127.524 29.9204L127.795 29.8095C127.813 29.8752 127.839 29.9348 127.872 29.9882C127.905 30.0416 127.943 30.0878 127.986 30.1268C128.031 30.1638 128.08 30.1935 128.134 30.2161C128.187 30.2367 128.243 30.2469 128.303 30.2469C128.432 30.2469 128.538 30.2141 128.62 30.1484C128.702 30.0806 128.744 29.9912 128.744 29.8803C128.744 29.7879 128.71 29.7088 128.642 29.6431C128.578 29.5794 128.459 29.5178 128.285 29.4583C128.108 29.3946 127.998 29.3515 127.955 29.3289C127.721 29.2097 127.604 29.0341 127.604 28.8021C127.604 28.6398 127.668 28.5012 127.798 28.3862C127.929 28.2711 128.09 28.2136 128.281 28.2136C128.45 28.2136 128.596 28.2568 128.719 28.343C128.842 28.4272 128.924 28.533 128.965 28.6603L128.7 28.7713C128.676 28.6891 128.626 28.6213 128.553 28.5679C128.481 28.5125 128.392 28.4847 128.288 28.4847C128.177 28.4847 128.083 28.5155 128.007 28.5772C127.931 28.6347 127.893 28.7096 127.893 28.8021C127.893 28.8781 127.923 28.9438 127.983 28.9992C128.048 29.0547 128.191 29.1204 128.411 29.1964C128.635 29.2724 128.794 29.3658 128.888 29.4767C128.985 29.5856 129.033 29.7201 129.033 29.8803ZM131.324 29.4429V30.4688H131.04V29.4429L130.298 28.2629H130.63L131.176 29.1594H131.188L131.721 28.2629H132.054L131.324 29.4429ZM134.83 29.8803C134.83 30.0734 134.759 30.2285 134.617 30.3455C134.473 30.4605 134.299 30.518 134.093 30.518C133.911 30.518 133.749 30.4646 133.61 30.3578C133.47 30.251 133.374 30.1052 133.32 29.9204L133.591 29.8095C133.61 29.8752 133.635 29.9348 133.668 29.9882C133.701 30.0416 133.739 30.0878 133.782 30.1268C133.827 30.1638 133.877 30.1935 133.93 30.2161C133.984 30.2367 134.04 30.2469 134.1 30.2469C134.229 30.2469 134.335 30.2141 134.417 30.1484C134.499 30.0806 134.54 29.9912 134.54 29.8803C134.54 29.7879 134.506 29.7088 134.439 29.6431C134.375 29.5794 134.256 29.5178 134.081 29.4583C133.905 29.3946 133.795 29.3515 133.752 29.3289C133.517 29.2097 133.4 29.0341 133.4 28.8021C133.4 28.6398 133.465 28.5012 133.594 28.3862C133.726 28.2711 133.887 28.2136 134.078 28.2136C134.246 28.2136 134.392 28.2568 134.516 28.343C134.639 28.4272 134.721 28.533 134.762 28.6603L134.497 28.7713C134.472 28.6891 134.423 28.6213 134.349 28.5679C134.277 28.5125 134.189 28.4847 134.084 28.4847C133.973 28.4847 133.88 28.5155 133.804 28.5772C133.728 28.6347 133.69 28.7096 133.69 28.8021C133.69 28.8781 133.72 28.9438 133.779 28.9992C133.845 29.0547 133.988 29.1204 134.207 29.1964C134.431 29.2724 134.59 29.3658 134.685 29.4767C134.782 29.5856 134.83 29.7201 134.83 29.8803ZM137.094 28.534V30.4688H136.811V28.534H136.194V28.2629H137.71V28.534H137.094ZM140.495 28.2629V28.534H139.491V29.2334H140.397V29.4983H139.491V30.1976H140.495V30.4688H139.208V28.2629H140.495ZM142.362 30.4688H142.079V28.2629H142.362L143.129 29.6061H143.142L143.909 28.2629H144.192V30.4688H143.909V29.1594L143.921 28.7897H143.909L143.219 30.0005H143.052L142.362 28.7897H142.35L142.362 29.1594V30.4688Z" fill="#002335"/>
<mask id="mask0_8979_7928" style="mask-type:luminance" maskUnits="userSpaceOnUse" x="141" y="11" width="15" height="14">
<path d="M155.249 11.0854H141.091V24.0518H155.249V11.0854Z" fill="white"/>
</mask>
<g mask="url(#mask0_8979_7928)">
<g style="mix-blend-mode:darken">
<path d="M151.424 21.1207C153.532 21.1207 155.242 19.4296 155.242 17.3436C155.242 15.2575 153.532 13.5664 151.424 13.5664C149.316 13.5664 147.606 15.2575 147.606 17.3436C147.606 19.4296 149.316 21.1207 151.424 21.1207Z" fill="#A5C400"/>
</g>
<g style="mix-blend-mode:darken">
<path d="M152.207 16.5356C152.955 16.9696 152.955 18.0546 152.207 18.4885L145.976 22.1014C145.227 22.5354 144.292 21.9929 144.292 21.125V13.8992C144.292 13.0313 145.227 12.4888 145.976 12.9228L152.207 16.5356Z" fill="#0078C1"/>
</g>
<g style="mix-blend-mode:darken">
<path d="M151.647 16.3838H146.37C145.75 16.3838 145.247 16.8886 145.247 17.5113V22.9233C145.247 23.5461 145.75 24.0509 146.37 24.0509H151.647C152.268 24.0509 152.77 23.5461 152.77 22.9233V17.5113C152.77 16.8886 152.268 16.3838 151.647 16.3838Z" fill="#F52335"/>
</g>
</g>
</g>
<defs>
<clipPath id="clip0_8979_7928">
<rect width="49" height="20" fill="white" transform="translate(106.25 11)"/>
</clipPath>
</defs>
</svg>
