<svg width="24" height="24" viewBox="0 0 24 24" fill="none" xmlns="http://www.w3.org/2000/svg">
<path d="M9.35655 18.6477C7.93027 17.9932 6.77142 17.0045 5.87999 15.6818C4.98856 14.3591 4.54285 12.8659 4.54285 11.2023C4.54285 10.8477 4.56013 10.5 4.59469 10.1591C4.62925 9.81818 4.6874 9.48409 4.76914 9.15682L3.82285 9.70909L3 8.29773L6.92913 6.04773L9.19198 9.93409L7.75198 10.7523L6.64113 8.82955C6.49027 9.19773 6.37727 9.57955 6.30211 9.975C6.22696 10.3705 6.18911 10.7795 6.18856 11.2023C6.18856 12.525 6.55199 13.7285 7.27884 14.8129C8.0057 15.8973 8.97255 16.6983 10.1794 17.2159L9.35655 18.6477ZM15.6514 8.72727V7.09091H17.8937C17.2628 6.31364 16.5017 5.71036 15.6102 5.28109C14.7188 4.85182 13.7725 4.63691 12.7714 4.63636C12.0171 4.63636 11.304 4.75227 10.632 4.98409C9.95998 5.21591 9.34284 5.54318 8.78055 5.96591L7.9577 4.53409C8.64341 4.05682 9.39084 3.68182 10.2 3.40909C11.0091 3.13636 11.8663 3 12.7714 3C13.8548 3 14.8902 3.20127 15.8777 3.60382C16.8651 4.00636 17.7497 4.58891 18.5314 5.35145V4.22727H20.1771V8.72727H15.6514ZM15.1165 21L11.1874 18.75L13.4503 14.8636L14.8697 15.6818L13.6971 17.6864C15.3154 17.4545 16.6629 16.725 17.7398 15.4977C18.8166 14.2705 19.3548 12.8318 19.3542 11.1818C19.3542 11.0318 19.3509 10.8919 19.3444 10.7621C19.3378 10.6323 19.3205 10.4995 19.2925 10.3636H20.9588C20.9725 10.5 20.9829 10.6331 20.9901 10.7629C20.9972 10.8927 21.0005 11.0324 20.9999 11.1818C20.9999 13.0227 20.4478 14.6695 19.3435 16.122C18.2393 17.5745 16.8028 18.5528 15.0342 19.0568L15.9394 19.5886L15.1165 21Z" fill="#006CB8"/>
</svg>
