<svg width="24" height="24" viewBox="0 0 24 24" fill="none" xmlns="http://www.w3.org/2000/svg">
<path fill-rule="evenodd" clip-rule="evenodd" d="M20.5875 15.9503C20.3188 15.5701 19.9389 15.2827 19.5 15.1275V8.25C19.5002 7.78451 19.3561 7.3304 19.0875 6.95026C18.8188 6.57012 18.4389 6.28266 18 6.1275V15H16.5V5.25C16.5 4.65326 16.2629 4.08097 15.841 3.65901C15.419 3.23705 14.8467 3 14.25 3H6.75C6.15326 3 5.58097 3.23705 5.15901 3.65901C4.73705 4.08097 4.5 4.65326 4.5 5.25V7.6275C4.06113 7.78266 3.68119 8.07012 3.41254 8.45026C3.14389 8.8304 2.99976 9.28451 3 9.75V18C3 18.7956 3.31607 19.5587 3.87868 20.1213C4.44129 20.6839 5.20435 21 6 21H18C18.7956 21 19.5587 20.6839 20.1213 20.1213C20.6839 19.5587 21 18.7956 21 18V17.25C21.0002 16.7845 20.8561 16.3304 20.5875 15.9503ZM15 8.87408V13.9395L11.3489 10.2894C12.7049 9.49387 14.0552 9.0647 15 8.87408ZM15 7.34889V5.25C15 5.05109 14.921 4.86032 14.7803 4.71967C14.6397 4.57902 14.4489 4.5 14.25 4.5H6.75C6.55109 4.5 6.36032 4.57902 6.21967 4.71967C6.07902 4.86032 6 5.05109 6 5.25V7.5H7.629C8.22554 7.50052 8.79745 7.73792 9.219 8.16L10.2569 9.19761C11.9865 8.11349 13.774 7.55713 15 7.34889ZM9.01126 10.0729L8.1585 9.2205C8.01819 9.07975 7.82774 9.00044 7.629 9H5.25C5.05109 9 4.86032 9.07902 4.71967 9.21967C4.57902 9.36032 4.5 9.55109 4.5 9.75V15.3777C5.42173 13.7411 6.78136 11.7988 9.01126 10.0729ZM10.0815 11.1427C7.09496 13.3946 5.78464 16.0663 4.88051 17.9098C4.80848 18.0567 4.73902 18.1983 4.6715 18.334L4.5227 18.26C4.57573 18.5613 4.7201 18.8414 4.93934 19.0607C5.22065 19.342 5.60218 19.5 6 19.5H18C18.3978 19.5 18.7794 19.342 19.0607 19.0607C19.342 18.7794 19.5 18.3978 19.5 18V17.25C19.5 17.0511 19.421 16.8603 19.2803 16.7197C19.1397 16.579 18.9489 16.5 18.75 16.5H16.371C15.7745 16.4995 15.2026 16.2621 14.781 15.84L10.0815 11.1427Z" fill="#011222"/>
</svg>
