<svg width="24" height="24" viewBox="0 0 24 24" fill="none" xmlns="http://www.w3.org/2000/svg">
<g clip-path="url(#clip0_73_180)">
<path d="M18.75 13.5H18V6.1275C18.4389 6.28266 18.8188 6.57012 19.0875 6.95026C19.3561 7.3304 19.5002 7.78451 19.5 8.25V13.575C19.2531 13.525 19.0019 13.4999 18.75 13.5ZM10.281 7.098L16.5 13.32V5.25C16.5 4.65326 16.2629 4.08097 15.841 3.65901C15.419 3.23705 14.8467 3 14.25 3H6.75C6.15326 3 5.58097 3.23705 5.15901 3.65901C4.73705 4.08097 4.5 4.65326 4.5 5.25V6.075C4.743 6.0255 4.9935 6 5.25 6H7.629C8.12149 5.99991 8.60918 6.09683 9.06421 6.28522C9.51924 6.47362 9.93271 6.7498 10.281 7.098ZM5.25 7.5C4.65326 7.5 4.08097 7.73705 3.65901 8.15901C3.23705 8.58097 3 9.15326 3 9.75V18C3 18.7956 3.31607 19.5587 3.87868 20.1213C4.44129 20.6839 5.20435 21 6 21H18C18.7956 21 19.5587 20.6839 20.1213 20.1213C20.6839 19.5587 21 18.7956 21 18V17.25C21 16.6533 20.7629 16.081 20.341 15.659C19.919 15.2371 19.3467 15 18.75 15H16.371C16.1725 15 15.9821 14.9212 15.8415 14.781L9.219 8.1585C8.7972 7.73697 8.22532 7.50013 7.629 7.5H5.25Z" fill="#E3DB22"/>
<g clip-path="url(#clip1_73_180)">
<mask id="mask0_73_180" style="mask-type:alpha" maskUnits="userSpaceOnUse" x="3" y="5" width="24" height="20">
<path d="M10.2 11.1158C15.576 4.5878 22.36 4.5558 25.08 5.3558L26.04 22.6358L3 24.5558C3.16 22.7958 4.824 17.6438 10.2 11.1158Z" fill="url(#paint0_linear_73_180)"/>
</mask>
<g mask="url(#mask0_73_180)">
<path d="M18.75 13.5H18V6.1275C18.4389 6.28266 18.8188 6.57012 19.0875 6.95026C19.3561 7.3304 19.5002 7.78451 19.5 8.25V13.575C19.2531 13.525 19.0019 13.4999 18.75 13.5ZM10.281 7.098L16.5 13.32V5.25C16.5 4.65326 16.2629 4.08097 15.841 3.65901C15.419 3.23705 14.8467 3 14.25 3H6.75C6.15326 3 5.58097 3.23705 5.15901 3.65901C4.73705 4.08097 4.5 4.65326 4.5 5.25V6.075C4.743 6.0255 4.9935 6 5.25 6H7.629C8.12149 5.99991 8.60918 6.09683 9.06421 6.28522C9.51924 6.47362 9.93271 6.7498 10.281 7.098ZM5.25 7.5C4.65326 7.5 4.08097 7.73705 3.65901 8.15901C3.23705 8.58097 3 9.15326 3 9.75V18C3 18.7956 3.31607 19.5587 3.87868 20.1213C4.44129 20.6839 5.20435 21 6 21H18C18.7956 21 19.5587 20.6839 20.1213 20.1213C20.6839 19.5587 21 18.7956 21 18V17.25C21 16.6533 20.7629 16.081 20.341 15.659C19.919 15.2371 19.3467 15 18.75 15H16.371C16.1725 15 15.9821 14.9212 15.8415 14.781L9.219 8.1585C8.7972 7.73697 8.22532 7.50013 7.629 7.5H5.25Z" fill="url(#paint1_linear_73_180)"/>
</g>
</g>
</g>
<defs>
<linearGradient id="paint0_linear_73_180" x1="19.32" y1="8.23578" x2="4.44" y2="21.6758" gradientUnits="userSpaceOnUse">
<stop offset="0.145833" stop-color="#193368"/>
<stop offset="1" stop-color="#00A7B6" stop-opacity="0.22"/>
</linearGradient>
<linearGradient id="paint1_linear_73_180" x1="21" y1="13" x2="10" y2="23" gradientUnits="userSpaceOnUse">
<stop stop-color="#627400"/>
<stop offset="1" stop-color="#ACC42A"/>
</linearGradient>
<clipPath id="clip0_73_180">
<rect width="24" height="24" fill="white"/>
</clipPath>
<clipPath id="clip1_73_180">
<rect width="24" height="24" fill="white"/>
</clipPath>
</defs>
</svg>
