<svg width="24" height="24" viewBox="0 0 24 24" fill="none" xmlns="http://www.w3.org/2000/svg">
<path d="M8.667 2.57005C8.80811 2.52014 8.95863 2.50255 9.10745 2.51857C9.25627 2.53458 9.3996 2.58381 9.52686 2.6626C9.65412 2.7414 9.76207 2.84775 9.84275 2.97383C9.92343 3.09991 9.97477 3.24249 9.993 3.39105L10 3.51205V12.0001C9.99984 12.5046 10.1904 12.9906 10.5335 13.3606C10.8766 13.7306 11.3468 13.9572 11.85 13.9951L12 14.0001H20.488C20.648 14 20.8056 14.0384 20.9476 14.1119C21.0897 14.1854 21.2121 14.2919 21.3044 14.4225C21.3968 14.5531 21.4565 14.704 21.4786 14.8624C21.5006 15.0208 21.4843 15.1822 21.431 15.3331C20.058 19.2161 16.356 22.0001 12 22.0001C6.477 22.0001 2 17.5231 2 12.0001C2 7.64405 4.784 3.94205 8.667 2.57005ZM12.989 2.05505L13.109 2.06105C15.3641 2.31328 17.4664 3.32465 19.0709 4.92916C20.6754 6.53367 21.6868 8.63599 21.939 10.8911C21.9678 11.1527 21.8923 11.4151 21.7288 11.6214C21.5654 11.8277 21.3273 11.9612 21.066 11.9931L20.946 12.0001H13C12.7551 12 12.5187 11.9101 12.3356 11.7473C12.1526 11.5846 12.0357 11.3603 12.007 11.1171L12 11.0001V3.05505C12 2.79173 12.1038 2.53903 12.289 2.35181C12.4742 2.16458 12.7257 2.05795 12.989 2.05505Z" fill="#600FB1"/>
<mask id="mask0_73_85" style="mask-type:alpha" maskUnits="userSpaceOnUse" x="2" y="2" width="20" height="20">
<path d="M8.667 2.57005C8.80811 2.52014 8.95863 2.50255 9.10745 2.51857C9.25627 2.53458 9.3996 2.58381 9.52686 2.6626C9.65412 2.7414 9.76207 2.84775 9.84275 2.97383C9.92343 3.09991 9.97477 3.24249 9.993 3.39105L10 3.51205V12.0001C9.99984 12.5046 10.1904 12.9906 10.5335 13.3606C10.8766 13.7306 11.3468 13.9572 11.85 13.9951L12 14.0001H20.488C20.648 14 20.8056 14.0384 20.9476 14.1119C21.0897 14.1854 21.2121 14.2919 21.3044 14.4225C21.3968 14.5531 21.4565 14.704 21.4786 14.8624C21.5006 15.0208 21.4843 15.1822 21.431 15.3331C20.058 19.2161 16.356 22.0001 12 22.0001C6.477 22.0001 2 17.5231 2 12.0001C2 7.64405 4.784 3.94205 8.667 2.57005ZM12.989 2.05505L13.109 2.06105C15.3641 2.31328 17.4664 3.32465 19.0709 4.92916C20.6754 6.53367 21.6868 8.63599 21.939 10.8911C21.9678 11.1527 21.8923 11.4151 21.7288 11.6214C21.5654 11.8277 21.3273 11.9612 21.066 11.9931L20.946 12.0001H13C12.7551 12 12.5187 11.9101 12.3356 11.7473C12.1526 11.5846 12.0357 11.3603 12.007 11.1171L12 11.0001V3.05505C12 2.79173 12.1038 2.53903 12.289 2.35181C12.4742 2.16458 12.7257 2.05795 12.989 2.05505Z" fill="#ACC42A"/>
</mask>
<g mask="url(#mask0_73_85)">
<path d="M9.12004 10.9158C14.496 4.38785 21.28 4.35585 24 5.15585L24.96 22.4358L1.92004 24.3558C2.08004 22.5958 3.74404 17.4438 9.12004 10.9158Z" fill="url(#paint0_linear_73_85)"/>
</g>
<defs>
<linearGradient id="paint0_linear_73_85" x1="18.24" y1="8.03583" x2="3.36004" y2="21.4758" gradientUnits="userSpaceOnUse">
<stop offset="0.145833" stop-color="#12786C"/>
<stop offset="1" stop-color="#00A7B6" stop-opacity="0.22"/>
</linearGradient>
</defs>
</svg>
