<svg width="24" height="24" viewBox="0 0 24 24" fill="none" xmlns="http://www.w3.org/2000/svg">
<path fill-rule="evenodd" clip-rule="evenodd" d="M21.42 6.59C21.05 6.2 20.58 6 20 6H16V4C16 3.42 15.8 2.95 15.42 2.58C15.05 2.2 14.58 2 14 2H10C9.42 2 8.95 2.2 8.58 2.58C8.2 2.95 8 3.42 8 4V6H4C3.42 6 2.95 6.2 2.58 6.59C2.2 7 2 7.45 2 8V19C2 19.55 2.2 20 2.58 20.41C2.95 20.8 3.42 21 4 21H20C20.58 21 21.05 20.8 21.42 20.41C21.8 20 22 19.55 22 19V8C22 7.45 21.8 7 21.42 6.59ZM4 19V8H20V10.172C18.6161 10.4405 16.7384 11.0468 14.97 12.152C11.4238 14.3684 9.7181 17.0994 8.6739 19H4ZM10.9827 19H20V12.2162C18.8981 12.4703 17.4306 12.9726 16.03 13.848C13.4397 15.4669 11.9737 17.3694 10.9827 19ZM14 4V6H10V4H14Z" fill="#011222"/>
</svg>
