<svg width="24" height="24" viewBox="0 0 24 24" fill="none" xmlns="http://www.w3.org/2000/svg">
<path d="M4 21C3.45 21 2.97933 20.8043 2.588 20.413C2.19667 20.0217 2.00067 19.5507 2 19V8C2 7.45 2.196 6.97933 2.588 6.588C2.98 6.19667 3.45067 6.00067 4 6H8V4C8 3.45 8.196 2.97933 8.588 2.588C8.98 2.19667 9.45067 2.00067 10 2H14C14.55 2 15.021 2.196 15.413 2.588C15.805 2.98 16.0007 3.45067 16 4V6H20C20.55 6 21.021 6.196 21.413 6.588C21.805 6.98 22.0007 7.45067 22 8V19C22 19.55 21.8043 20.021 21.413 20.413C21.0217 20.805 20.5507 21.0007 20 21H4ZM10 6H14V4H10V6Z" fill="#C3D856"/>
<mask id="mask0_73_58" style="mask-type:alpha" maskUnits="userSpaceOnUse" x="0" y="0" width="24" height="24">
<path d="M4 21C3.45 21 2.97933 20.8043 2.588 20.413C2.19667 20.0217 2.00067 19.5507 2 19V8C2 7.45 2.196 6.97933 2.588 6.588C2.98 6.19667 3.45067 6.00067 4 6H8V4C8 3.45 8.196 2.97933 8.588 2.588C8.98 2.19667 9.45067 2.00067 10 2H14C14.55 2 15.021 2.196 15.413 2.588C15.805 2.98 16.0007 3.45067 16 4V6H20C20.55 6 21.021 6.196 21.413 6.588C21.805 6.98 22.0007 7.45067 22 8V19C22 19.55 21.8043 20.021 21.413 20.413C21.0217 20.805 20.5507 21.0007 20 21H4ZM10 6H14V4H10V6Z" fill="black"/>
</mask>
<g mask="url(#mask0_73_58)">
<path d="M12 17.28C17.376 10.752 24.16 10.72 26.88 11.52L27.84 28.8L4.79999 30.72C4.95999 28.96 6.62399 23.808 12 17.28Z" fill="url(#paint0_linear_73_58)"/>
</g>
<defs>
<linearGradient id="paint0_linear_73_58" x1="21.12" y1="14.4" x2="6.23999" y2="27.84" gradientUnits="userSpaceOnUse">
<stop offset="0.117154" stop-color="#ACC42A"/>
<stop offset="1" stop-color="#ACC42A" stop-opacity="0"/>
</linearGradient>
</defs>
</svg>
